<?xml version="1.0" encoding="UTF-8"?>
<svg xmlns="http://www.w3.org/2000/svg" version="1.1" viewBox="0 0 840 500">
  <!-- Generator: Adobe Illustrator 29.7.1, SVG Export Plug-In . SVG Version: 2.1.1 Build 8)  -->
  <defs>
    <style>
      .st0 {
        stroke-width: 1.7px;
      }

      .st0, .st1, .st2, .st3, .st4, .st5, .st6 {
        fill: none;
        stroke-miterlimit: 10;
      }

      .st0, .st2, .st4, .st6 {
        stroke: #eaf0ff;
      }

      .st1 {
        stroke: #fff;
        stroke-width: 1.13px;
      }

      .st2 {
        stroke-dasharray: 3.96 2.83;
      }

      .st2, .st4, .st6 {
        stroke-width: .71px;
      }

      .st7 {
        fill: #fff;
      }

      .st8 {
        opacity: .4;
      }

      .st3, .st5 {
        stroke: #ff005c;
        stroke-width: 1.42px;
      }

      .st3, .st6 {
        stroke-dasharray: 3.95 2.82;
      }

      .st9 {
        opacity: .2;
      }

      .st10 {
        fill: #a8b6d7;
      }

      .st11 {
        fill: #ff005c;
      }

      .st12 {
        fill: #eaf0ff;
      }
    </style>
  </defs>
  <g id="stick">
    <rect class="st10" x="99.1" y="271.17" width="50" height="178"/>
    <rect class="st10" x="199.1" y="93.17" width="50" height="356"/>
    <rect class="st10" x="299.1" y="152.57" width="50" height="296.6"/>
    <rect class="st10" x="399.1" y="317.37" width="50" height="131.8"/>
    <rect class="st10" x="499.1" y="416.17" width="50" height="33"/>
    <rect class="st10" x="599.1" y="444.77" width="50" height="4.4"/>
    <rect class="st10" x="699.1" y="448.97" width="50" height=".2"/>
  </g>
  <g id="axes">
    <g>
      <polyline class="st0" points="771.18 450 74.1 450 74.1 52.92"/>
      <polygon class="st12" points="766.1 445.67 770.43 450 766.1 454.33 769.77 454.33 774.1 450 769.77 445.67 766.1 445.67"/>
      <polygon class="st12" points="78.42 58 74.1 53.67 69.77 58 69.77 54.33 74.1 50 78.42 54.33 78.42 58"/>
    </g>
    <g class="st9">
      <g>
        <line class="st4" x1="74.1" y1="400" x2="76.08" y2="400"/>
        <line class="st2" x1="78.91" y1="400" x2="770.7" y2="400"/>
        <line class="st4" x1="772.11" y1="400" x2="774.1" y2="400"/>
      </g>
      <g>
        <line class="st4" x1="124.1" y1="450" x2="124.1" y2="448.02"/>
        <line class="st6" x1="124.1" y1="445.19" x2="124.06" y2="53.4"/>
        <line class="st4" x1="124.06" y1="51.99" x2="124.06" y2="50"/>
      </g>
      <g>
        <line class="st4" x1="224.1" y1="450" x2="224.1" y2="448.02"/>
        <line class="st6" x1="224.1" y1="445.19" x2="224.06" y2="53.4"/>
        <line class="st4" x1="224.06" y1="51.99" x2="224.06" y2="50"/>
      </g>
      <g>
        <line class="st4" x1="324.1" y1="450" x2="324.1" y2="448.02"/>
        <line class="st6" x1="324.1" y1="445.19" x2="324.06" y2="53.4"/>
        <line class="st4" x1="324.06" y1="51.99" x2="324.06" y2="50"/>
      </g>
      <g>
        <line class="st4" x1="424.1" y1="450" x2="424.1" y2="448.02"/>
        <line class="st6" x1="424.1" y1="445.19" x2="424.06" y2="53.4"/>
        <line class="st4" x1="424.06" y1="51.99" x2="424.06" y2="50"/>
      </g>
      <g>
        <line class="st4" x1="524.1" y1="450" x2="524.1" y2="448.02"/>
        <line class="st6" x1="524.1" y1="445.19" x2="524.06" y2="53.4"/>
        <line class="st4" x1="524.06" y1="51.99" x2="524.06" y2="50"/>
      </g>
      <g>
        <line class="st4" x1="624.1" y1="450" x2="624.1" y2="448.02"/>
        <line class="st6" x1="624.1" y1="445.19" x2="624.06" y2="53.4"/>
        <line class="st4" x1="624.06" y1="51.99" x2="624.06" y2="50"/>
      </g>
      <g>
        <line class="st4" x1="724.1" y1="450" x2="724.1" y2="448.02"/>
        <line class="st6" x1="724.1" y1="445.19" x2="724.06" y2="53.4"/>
        <line class="st4" x1="724.06" y1="51.99" x2="724.06" y2="50"/>
      </g>
      <g>
        <line class="st4" x1="74.1" y1="350" x2="76.08" y2="350"/>
        <line class="st2" x1="78.91" y1="350" x2="770.7" y2="350"/>
        <line class="st4" x1="772.11" y1="350" x2="774.1" y2="350"/>
      </g>
      <g>
        <line class="st4" x1="74.1" y1="300" x2="76.08" y2="300"/>
        <line class="st2" x1="78.91" y1="300" x2="770.7" y2="300"/>
        <line class="st4" x1="772.11" y1="300" x2="774.1" y2="300"/>
      </g>
      <g>
        <line class="st4" x1="74.1" y1="250" x2="76.08" y2="250"/>
        <line class="st2" x1="78.91" y1="250" x2="770.7" y2="250"/>
        <line class="st4" x1="772.11" y1="250" x2="774.1" y2="250"/>
      </g>
      <g>
        <line class="st4" x1="74.1" y1="200" x2="76.08" y2="200"/>
        <line class="st2" x1="78.91" y1="200" x2="770.7" y2="200"/>
        <line class="st4" x1="772.11" y1="200" x2="774.1" y2="200"/>
      </g>
      <g>
        <line class="st4" x1="74.1" y1="150" x2="76.08" y2="150"/>
        <line class="st2" x1="78.91" y1="150" x2="770.7" y2="150"/>
        <line class="st4" x1="772.11" y1="150" x2="774.1" y2="150"/>
      </g>
      <g>
        <line class="st4" x1="74.1" y1="100" x2="76.08" y2="100"/>
        <line class="st2" x1="78.91" y1="100" x2="770.7" y2="100"/>
        <line class="st4" x1="772.11" y1="100" x2="774.1" y2="100"/>
      </g>
    </g>
  </g>
  <g id="line">
    <g class="st8">
      <path class="st7" d="M476.27,386.46l5.21,5.14-.9,1.01c-.54.45-.74.06-1.15-.24-.64-.47-5.58-5.39-3.16-5.9Z"/>
      <path class="st7" d="M440.07,335.56c.06,1.43,4.62,5.97,2.55,6.82-.94.38-.91-.06-1.27-.6-.63-.91-2.76-4.26-2.99-5.1-.25-.95,1.11-1.04,1.71-1.12Z"/>
      <polygon class="st7" points="242.72 90.73 244.24 91.91 239.47 97.05 238.37 95.41 242.72 90.73"/>
      <polygon class="st7" points="357.41 170.99 355.37 171.01 352.87 164.63 354.45 164.63 357.41 170.99"/>
      <polygon class="st7" points="384.68 228.78 383.1 228.79 380.14 222.42 382.18 222.4 384.68 228.78"/>
      <path class="st7" d="M427.4,314.47l-1.76.46c-.56-1.93-2.27-3.69-2.87-5.51-.53-1.61.76-1.71,1.85-.51.41.45,2.96,5.31,2.78,5.56Z"/>
      <polygon class="st7" points="166.53 229.28 163.56 235.64 161.99 235.64 164.49 229.25 166.53 229.28"/>
      <path class="st7" d="M251.52,83.84l.25,1.48-5.02,4.38c-.72-.85-1.62-1.05-.66-2.17.59-.69,4.81-4.21,5.43-3.69Z"/>
      <path class="st7" d="M300.6,85.79c.9-.75,5.09,3.75,5.9,4.65l-1.12,1.1-5.03-4.26.25-1.48Z"/>
      <polygon class="st7" points="391.97 248.35 389.27 242.24 390.82 241.03 393.77 247.62 391.97 248.35"/>
      <polygon class="st7" points="371.05 199.89 369.47 199.89 366.5 193.53 368.54 193.51 371.05 199.89"/>
      <polygon class="st7" points="180.16 200.38 177.2 206.75 175.62 206.75 178.12 200.36 180.16 200.38"/>
      <polygon class="st7" points="373.79 209.67 371.09 203.55 372.64 202.34 375.59 208.94 373.79 209.67"/>
      <polygon class="st7" points="422.4 305.17 420.64 305.63 417.61 299.28 419.21 298.31 422.4 305.17"/>
      <path class="st7" d="M558.72,437.91l.02,1.93c-2.32-.05-4.48-1.16-6.76-1.52l-.05-1.9,6.79,1.5Z"/>
      <path class="st7" d="M138.35,286.56c0,2.62-2.21,4.4-2.74,6.85l-1.8-.49,2.97-6.37h1.58Z"/>
      <path class="st7" d="M214.25,130.84c-.69-.9,3.09-5.5,3.19-6.86l1.6.97-3.43,6.16-1.36-.27Z"/>
      <path class="st7" d="M143.35,277.27l-2.97,6.37h-1.58c0-2.63,2.21-4.4,2.74-6.86l1.8.49Z"/>
      <polygon class="st7" points="211.99 133.29 213.71 134.51 209.93 140.63 208.86 139.01 211.99 133.29"/>
      <path class="st7" d="M521.03,424.65c-2.44.03-3.99-2.55-6.36-2.95l.46-1.94,5.91,3.2v1.7Z"/>
      <path class="st7" d="M483.53,393.81l5.22,5.13-.9,1.01c-1.16.66-4.07-4-5.43-4.42l1.11-1.71Z"/>
      <polygon class="st7" points="472.45 384.92 468.32 379.85 469.51 378.67 474.21 383.77 473.53 384.99 472.45 384.92"/>
      <path class="st7" d="M455.13,359.52l-1.53.41c-.39-.07-5.47-6.07-2.79-6.76l4.32,6.35Z"/>
      <polygon class="st7" points="193.8 168.05 196.99 161.2 198.59 162.17 195.84 168.08 195.33 168.49 193.8 168.05"/>
      <polygon class="st7" points="279.69 76.98 272.88 76.49 272.88 74.53 279.5 74.99 279.69 76.98"/>
      <path class="st7" d="M456.75,361.99c.85-.22,3.26,4.57,4.25,5.19l-1.1,1.64-4.3-5.62,1.15-1.21Z"/>
      <polygon class="st7" points="463.08 370.31 467.37 375.51 466.26 377.15 462.13 371.79 463.08 370.31"/>
      <path class="st7" d="M260.15,78.45l.25,1.48-5.49,3.33-1.13-1.14c-.27-.74,1.72-1.63,2.26-1.96.59-.37,3.62-2.14,4.1-1.7Z"/>
      <path class="st7" d="M298.31,82.88l-.21,1.45c-.43.66-.58.47-1.17.28-1.24-.39-3.29-2.71-4.78-3.22l.27-1.96,5.89,3.45Z"/>
      <path class="st7" d="M156.98,248.37c.37.48-2.36,7.1-3.4,6.85-1.94-.45,1.57-6.07,2.03-7.13l1.37.27Z"/>
      <path class="st7" d="M490.58,401.15c.53-.45,4.99,4.18,5.9,4.65l-1.19,1.18-.6-.18-4.36-3.7.26-1.95Z"/>
      <polygon class="st7" points="530.58 427.6 529.48 429.51 524.19 426.85 523.81 426.31 524.21 424.66 530.58 427.6"/>
      <path class="st7" d="M539.66,431.52c.33.39-.14,2.1-1.11,1.96l-5.26-2.21c-.8-.25-.01-2.28.23-2.19.72,1.16,5.92,2.19,6.14,2.45Z"/>
      <path class="st7" d="M321.74,109.3c1.03-.24,3.34,4.46,4.27,5.21l-1.1,1.63c-.6-.89-5.49-6.31-3.17-6.84Z"/>
      <polygon class="st7" points="330.15 124.96 326.51 118.61 328.04 118.2 331.75 123.51 330.15 124.96"/>
      <path class="st7" d="M332.42,127.42l1.37-.27c.42.21,2.96,4.58,3.25,5.34.59,1.52-.72,1.74-1.84.5-.51-.57-3.12-5.16-2.78-5.57Z"/>
      <path class="st7" d="M193.8,171.49l-2.97,6.37c-.15.62-1.53.06-1.58,0-.68-.92,2.85-5.35,2.74-6.85l1.8.49Z"/>
      <path class="st7" d="M363.77,183.24l2.73,6.85-1.6.06-2.75-5.42c-.21-.73,1.17-1.84,1.62-1.49Z"/>
      <path class="st7" d="M180.16,196.95c-.37-.48,2.36-7.1,3.4-6.85,1.94.45-1.57,6.07-2.03,7.13l-1.37-.27Z"/>
      <path class="st7" d="M170.62,219.48c.37.48-2.36,7.1-3.4,6.85-1.94-.45,1.57-6.07,2.03-7.13l1.37.27Z"/>
      <path class="st7" d="M387.43,238.56c-.37-1.98-1.77-3.71-2.37-5.54-.18-.55-.5-1.1.32-1.3,1.86-.45,2.86,4.48,3.79,5.71l-1.74,1.12Z"/>
      <polygon class="st7" points="568.75 440.33 568.04 442.32 561.46 440.52 561.94 438.85 568.75 440.33"/>
      <path class="st7" d="M407.86,276.76l-1.8.49c-.53-2.45-2.74-4.23-2.74-6.85h1.58s2.97,6.36,2.97,6.36Z"/>
      <path class="st7" d="M409.66,279.73c-.05,1.43,4.03,6.03,2.06,6.83-1.02.42-.9-.02-1.25-.62-.92-1.61-1.46-3.56-2.56-5.08l1.75-1.14Z"/>
      <path class="st7" d="M415.59,296.36c-.21-2.14-2.21-3.81-2.65-5.74-.34-1.47.16-.89,1.06-1.57l3.27,6.1-1.68,1.22Z"/>
      <path class="st7" d="M128.81,305.67c.18.25-2.4,5.02-2.79,5.56-.95,1.33-2.36,1.06-1.84-.51.6-1.82,2.31-3.59,2.87-5.51l1.76.46Z"/>
      <polygon class="st7" points="445.57 344.35 449.22 350.71 447.69 351.11 443.97 345.81 445.57 344.35"/>
      <polygon class="st7" points="269.7 75.02 269.67 76.95 263.37 78.43 262.88 76.49 269.7 75.02"/>
      <polygon class="st7" points="289.24 79.91 282.94 77.4 282.88 75.51 289.25 77.71 289.65 78.26 289.24 79.91"/>
      <path class="st7" d="M235.85,98.53l1.13.74c.17.86-3.85,5.71-4.29,5.6l-1.16-1.21,4.32-5.14Z"/>
      <polygon class="st7" points="320.14 106.85 318.33 107.13 314.69 101.72 316.06 101.21 320.14 106.85"/>
      <path class="st7" d="M498.98,408.13c.95.54,5.43,3.48,5.23,4.52-.49,2.49-5.53-2.78-6.35-3.42l1.12-1.1Z"/>
      <polygon class="st7" points="433.99 326.24 437.67 332.08 436.72 333.56 433.04 327.72 433.99 326.24"/>
      <path class="st7" d="M359.21,173.95c.25,1.99,1.85,3.74,2.53,5.37.5,1.21-.85,2.27-1.71.84-.95-1.6-1.74-3.39-2.55-5.09l1.74-1.12Z"/>
      <path class="st7" d="M395.57,250.82c.53,2.45,2.75,4.25,2.74,6.85l-1.14.46-3.4-6.59,1.79-.72Z"/>
      <path class="st7" d="M149.71,265.02l-1.76-1.21c.79-.93,2.77-6.37,3.81-6.13,2.26.53-2.33,6-2.05,7.34Z"/>
      <path class="st7" d="M203.34,152.39c.37.5-2.4,5.68-2.98,6.37-.64.76-.79-.11-1.57,0l2.98-6.37h1.56Z"/>
      <polygon class="st7" points="208.34 143.08 204.93 149.93 203.87 148.64 206.98 142.81 208.34 143.08"/>
      <polygon class="st7" points="403.32 266.97 401.5 267.95 398.32 261.11 400.13 260.82 403.32 266.97"/>
      <path class="st7" d="M128.81,302.23c.97-1.53,1.82-4.2,2.78-5.57s2.37-1.06,1.85.51c-.25.76-2.78,5.41-3.1,5.49l-1.53-.43Z"/>
      <path class="st7" d="M221.47,121.97l-1.08.05c-.39-.38-.69-.5-.63-1.15.03-.35,3.49-5.7,3.81-5.69l.95,1.48-3.05,5.3Z"/>
      <path class="st7" d="M340.62,143.07c-.01-2.3-3.76-4.88-2.06-6.84,1.17-.26,3.19,4.68,3.79,5.72l-1.74,1.12Z"/>
      <path class="st7" d="M628.29,447.18v1.95c-1.11-.1-6.57.43-6.84-.8l.02-1.65,6.81.49Z"/>
      <path class="st7" d="M225.16,112.72c-.22-.27,3.6-5.37,4.08-5.64.8-.44.87-.08,1.37.51-.65,1.43-3.78,7.18-5.46,5.12Z"/>
      <path class="st7" d="M147.89,267.46c.02,2.62-2.36,4.3-2.74,6.85l-1.8-.49,2.97-6.37h1.58Z"/>
      <path class="st7" d="M187.44,180.3l1.77,1.21c-.67.93-2.75,6.37-3.81,6.13-.7-.59-.7-.61-.49-1.49.4-1.72,2.35-3.87,2.54-5.86Z"/>
      <path class="st7" d="M432.4,323.78c-.05.07-1.36.54-1.6.06-.73-1.73-4.41-5.62-1.8-6.91.22,1.37,4.07,5.93,3.4,6.85Z"/>
      <path class="st7" d="M344.67,145.55c-.24,1.28,4.13,6.37,2.06,6.84-2.02-.82-2.46-3.97-3.8-5.7l1.75-1.14Z"/>
      <path class="st7" d="M512.85,417.81l-1.13,1.94-5.68-4.15.74-1.27c1.44-.29,4.31,3.31,6.08,3.48Z"/>
      <path class="st7" d="M578.29,442.3c-.14.74.56,2.07-.64,1.92-2.03-.25-4.09-.98-6.16-.97v-1.94s6.8.99,6.8.99Z"/>
      <path class="st7" d="M588.29,443.76v1.95c-.27.3-5.82-.85-6.76-1.03l-.05-1.9,6.82.98Z"/>
      <polygon class="st7" points="618.29 446.69 618.29 448.65 611.47 448.16 611.47 446.2 618.29 446.69"/>
      <polygon class="st7" points="350.62 161.68 347.87 155.33 349.47 155.27 352.38 160.52 350.62 161.68"/>
      <path class="st7" d="M160.17,238.08l1.76,1.21c-.79.94-2.76,6.37-3.81,6.13-.7-.59-.7-.61-.49-1.49.4-1.72,2.35-3.87,2.54-5.86Z"/>
      <path class="st7" d="M542.39,434.93l.67-1.94c.88.94,6.44,1.62,6.14,3.16-.37,1.91-5.7-1.28-6.81-1.22Z"/>
      <path class="st7" d="M598.29,445.23v1.46c-2.29.15-4.54-.07-6.79-.52l-.03-1.92,6.81.99Z"/>
      <path class="st7" d="M309.01,92.66c.43,0,3.15,4.42,4.1,4.88.15,3.87-4.62-2.42-5.2-3.6l1.1-1.28Z"/>
      <path class="st7" d="M376.1,212.69l1.3-.56c.19,1.99,2.14,4.14,2.54,5.86.2.88.21.9-.49,1.49-.84.19-4.01-5.9-3.35-6.79Z"/>
      <path class="st7" d="M175.14,209.72c.38.51-2.35,7.06-3.38,6.82-2.12-.49,2.26-5.91,2.05-7.34l1.33.53Z"/>
      <path class="st7" d="M608.29,446.21v1.46c-1.09-.09-6.49.39-6.82-.73l.27-1.23,6.55.51Z"/>
      <path class="st7" d="M631.47,449.14l.23-1.97c2.1.88,4.39.38,6.59.5v1.47h-6.82Z"/>
      <path class="st7" d="M641.47,449.14v-1.47c1.98.04,3.89-.23,5.83.35.81.24,1.17-.16.98,1.12h-6.82Z"/>
      <rect class="st7" x="651.46" y="448.16" width="6.82" height=".98"/>
      <rect class="st7" x="661.46" y="448.16" width="6.82" height=".98"/>
      <rect class="st7" x="671.42" y="448.16" width="6.82" height=".98"/>
      <rect class="st7" x="681.22" y="448.16" width="6.82" height=".98"/>
      <rect class="st7" x="691.22" y="448.16" width="6.82" height=".98"/>
      <rect class="st7" x="701.17" y="448.16" width="6.82" height=".98"/>
      <rect class="st7" x="711.34" y="448.16" width="6.82" height=".98"/>
      <rect class="st7" x="721.34" y="448.16" width="6.82" height=".98"/>
    </g>
    <g>
      <line class="st5" x1="274.12" y1="450" x2="274.12" y2="448.02"/>
      <line class="st3" x1="274.12" y1="445.19" x2="274.08" y2="53.4"/>
      <line class="st5" x1="274.08" y1="51.99" x2="274.08" y2="50"/>
    </g>
    <g>
      <path class="st11" d="M245.81,31.82l-1.25,4.37h.38c1.01,0,1.74-.13,2.2-.4.46-.27.85-.74,1.17-1.41h.31l-1.26,4.38h-.29c.05-.29.07-.53.07-.71,0-.3-.09-.55-.27-.75-.18-.19-.41-.33-.7-.42-.19-.05-.58-.08-1.17-.08h-.65l-1.08,3.78c-.09.33-.14.58-.14.74,0,.13.06.23.18.31.18.11.51.17,1,.17.95,0,1.84-.2,2.67-.6s1.59-1.01,2.25-1.82h.34l-1.17,3.09h-9.63l.1-.31c.56,0,.98-.11,1.24-.32s.5-.68.71-1.41l2.12-7.25c.12-.4.17-.72.17-.95,0-.21-.07-.37-.22-.49s-.49-.19-1.02-.23l.09-.31h8.97l-.72,2.81h-.3c-.02-.55-.11-.94-.26-1.17-.23-.35-.54-.61-.93-.78-.38-.16-1.01-.24-1.87-.24h-1.05Z"/>
      <path class="st11" d="M256.56,45.16h-3.43v-14.61h3.43v1.29h-1.79v12.02h1.79v1.29Z"/>
      <path class="st11" d="M267.13,42.45h-4.87l.09-.31c.32-.03.56-.12.71-.28.15-.16.23-.35.23-.58,0-.25-.09-.65-.26-1.19l-1.2-3.83-1.19,4.11c-.13.46-.2.79-.2,1,0,.23.09.42.27.56.18.14.51.21.99.22l-.09.31h-5.47l.09-.31c.44-.01.76-.07.98-.17s.39-.27.51-.49c.13-.22.28-.65.46-1.27l1.89-6.55c.22-.75.32-1.23.32-1.44,0-.19-.09-.35-.26-.49-.17-.14-.51-.21-.99-.23l.09-.31h5.3l-.09.31c-.35,0-.63.05-.81.16-.25.14-.45.35-.61.63-.1.18-.25.61-.43,1.27l-.76,2.69,2.93-2.69c.57-.53.89-.84.95-.95.09-.14.13-.29.13-.44,0-.17-.06-.31-.18-.43-.12-.12-.33-.2-.62-.24l.09-.31h4.24l-.09.31c-.33.03-.59.08-.8.14-.27.09-.58.24-.93.45s-.7.46-1.06.75l-.77.71-1.78,1.6,1.33,4.15c.43,1.37.77,2.17,1,2.42s.55.38.93.41l-.09.31Z"/>
      <path class="st11" d="M273.33,45.16h-3.44v-1.29h1.8v-12.02h-1.8v-1.29h3.44v14.61Z"/>
      <path class="st11" d="M285.1,36.64h-8.08v-1.7h8.08v1.7ZM285.1,40.24h-8.08v-1.68h8.08v1.68Z"/>
      <path class="st11" d="M292.7,42.45h-2.61v-9.08c-.3.21-.64.38-1.01.52-.37.14-.77.29-1.21.42l-.71-2.09c.76-.22,1.47-.5,2.15-.83s1.28-.7,1.81-1.11h1.59v12.17Z"/>
      <path class="st11" d="M296.77,42.66c-.45,0-.82-.13-1.11-.4-.29-.27-.44-.61-.44-1.03s.15-.76.44-1.02c.29-.27.66-.4,1.11-.4s.82.13,1.11.4c.29.27.44.61.44,1.02s-.14.76-.43,1.03-.66.4-1.11.4Z"/>
      <path class="st11" d="M299.89,41.42l1.21-1.6c.38.29.77.5,1.17.63s.8.2,1.2.2c.6,0,1.07-.17,1.4-.49s.5-.75.5-1.27c0-.64-.21-1.11-.63-1.4s-1.05-.44-1.88-.44c-.3,0-.63.01-.99.04-.36.02-.73.06-1.13.1l.45-6.64h6.3v2.14h-4.3l-.17,2.38c.22-.02.42-.03.6-.04.18,0,.35-.01.51-.01,1.22,0,2.18.32,2.87.96.69.64,1.04,1.53,1.04,2.67s-.39,2.11-1.18,2.87-1.87,1.14-3.26,1.14c-.71,0-1.36-.1-1.95-.3s-1.17-.51-1.74-.94Z"/>
    </g>
    <g class="st8">
      <path class="st7" d="M409.67,204.26l3.36,7.16,1.51-5.19c.08-.29.12-.54.12-.76,0-.26-.08-.48-.25-.63-.17-.16-.45-.25-.86-.28l.09-.29h3.41l-.08.29c-.43.03-.79.15-1.07.36-.28.22-.52.65-.72,1.31l-2.62,8.89h-.3l-4.31-9.15-2.08,7.14c-.07.25-.1.47-.1.67,0,.29.09.51.28.69s.49.26.9.26l-.07.29h-3.5l.07-.29c.3,0,.51-.03.64-.08.22-.08.44-.25.65-.49s.38-.59.51-1.04l2.27-7.8c-.28-.31-.51-.51-.7-.6-.19-.09-.48-.14-.86-.14l.09-.29h3.63Z"/>
      <path class="st7" d="M420.94,203.04h1.2c-.36.53-.71,1.21-1.02,2.05-.32.84-.57,1.74-.76,2.72-.19.97-.29,1.91-.29,2.82s.1,1.85.29,2.83c.19.98.45,1.88.76,2.72.32.84.66,1.52,1.02,2.05h-1.2c-.74-1.08-1.31-2.25-1.69-3.51s-.58-2.62-.59-4.09c.02-2.88.78-5.41,2.28-7.59Z"/>
      <path class="st7" d="M427.31,207.88h2.04l-1.5,5.23c-.07.24-.1.41-.1.5,0,.13.08.2.25.2.36,0,.78-.27,1.26-.82.48-.54.93-1.21,1.33-2.01l.9-3.1h1.99l-1.52,5.25c-.12.41-.18.67-.18.77,0,.12.06.18.17.18.2,0,.52-.34.97-1.02l.27.19c-.73,1.31-1.54,1.97-2.43,1.97-.3,0-.55-.08-.75-.24-.2-.16-.3-.38-.3-.67s.07-.65.2-1.08l.23-.74c-1.19,1.82-2.25,2.72-3.19,2.72-.36,0-.62-.12-.76-.35-.18.82-.29,1.58-.34,2.28-.03.4-.06.66-.09.8-.04.14-.13.26-.27.38-.15.11-.33.17-.54.17-.26,0-.47-.08-.65-.23-.17-.16-.26-.34-.26-.54,0-.23.17-.67.5-1.3.5-.94.93-2.06,1.31-3.37l1.48-5.18Z"/>
      <path class="st7" d="M437.92,207.84h8.66v1.03h-8.66v-1.03ZM437.92,210.43h8.66v1.03h-8.66v-1.03Z"/>
      <path class="st7" d="M455.27,215h-1.88v-9.2c-.24.18-.58.36-1.01.55-.43.19-.84.34-1.24.46l-.52-1.56c.67-.18,1.33-.45,2-.78.67-.34,1.22-.7,1.66-1.08h.99v11.61Z"/>
      <path class="st7" d="M459.24,215.18c-.33,0-.61-.11-.84-.32-.23-.21-.34-.48-.34-.8s.11-.59.34-.81c.23-.22.51-.32.84-.32s.63.11.85.32c.22.21.34.48.34.8s-.11.59-.34.8-.51.32-.85.32Z"/>
      <path class="st7" d="M462.17,214.04l.92-1.2c.38.3.77.52,1.16.66.4.14.81.21,1.25.21.66,0,1.19-.19,1.59-.58.4-.39.6-.89.6-1.5,0-.68-.23-1.2-.68-1.55-.45-.35-1.11-.53-1.98-.53-.3,0-.62.01-.97.03s-.68.05-1.01.1l.41-6.01h5.61v1.59h-4.11l-.19,2.82c.18-.01.37-.02.55-.03s.35-.01.5-.01c1.18,0,2.11.31,2.78.92.67.61,1,1.45,1,2.52s-.37,2-1.1,2.7c-.74.7-1.71,1.04-2.93,1.04-.66,0-1.26-.09-1.81-.28-.55-.19-1.08-.48-1.58-.88Z"/>
      <path class="st7" d="M472.26,217.84v-.35c.61-.26,1.06-.61,1.33-1.03.28-.42.42-.85.42-1.29,0-.09-.02-.16-.06-.21-.04-.04-.07-.06-.11-.06-.03,0-.08.02-.14.06-.15.09-.34.13-.57.13-.31,0-.58-.12-.81-.36s-.34-.53-.34-.86c0-.35.13-.65.4-.92.26-.26.58-.4.96-.4.45,0,.84.18,1.16.53.32.35.48.83.48,1.45,0,.75-.23,1.43-.69,2.01s-1.13,1.02-2.03,1.29Z"/>
      <path class="st7" d="M490.33,207.88l-.49,1.71h-2.71c.88.78,1.31,1.52,1.31,2.24,0,.86-.37,1.64-1.12,2.34-.74.7-1.67,1.05-2.78,1.05-.91,0-1.61-.28-2.1-.84s-.74-1.26-.74-2.1.29-1.65.86-2.41,1.21-1.28,1.93-1.56c.72-.29,1.69-.43,2.91-.43h2.93ZM486.7,209.59c-.64,0-1.18.12-1.61.36-.43.24-.83.69-1.18,1.36-.36.67-.54,1.36-.54,2.07,0,.44.09.78.27,1.01.18.24.42.36.72.36.6,0,1.17-.51,1.69-1.54s.79-1.98.79-2.85c0-.23-.05-.49-.14-.78Z"/>
      <path class="st7" d="M495.89,205.42c0,.55-.41,1.2-1.22,1.94-.25.23-.88.72-1.88,1.47h1.04c.34,0,.58-.03.71-.08.17-.07.33-.24.48-.5h.41l-.79,1.61h-3.53v-.21c1.6-1.28,2.62-2.23,3.04-2.83.21-.3.32-.62.32-.97,0-.53-.28-.8-.85-.8-.4,0-.76.21-1.07.64l-.32-.13c.39-.94,1.05-1.41,1.99-1.41.42,0,.79.1,1.11.31.37.24.55.56.55.96Z"/>
      <path class="st7" d="M499.66,207.84h8.66v1.03h-8.66v-1.03ZM499.66,210.43h8.66v1.03h-8.66v-1.03Z"/>
      <path class="st7" d="M517.01,215h-1.88v-9.2c-.24.18-.58.36-1.01.55-.43.19-.84.34-1.24.46l-.52-1.56c.67-.18,1.33-.45,2-.78.67-.34,1.22-.7,1.66-1.08h.99v11.61Z"/>
      <path class="st7" d="M520.98,215.18c-.33,0-.61-.11-.84-.32-.23-.21-.34-.48-.34-.8s.11-.59.34-.81c.23-.22.51-.32.84-.32s.63.11.85.32c.22.21.34.48.34.8s-.11.59-.34.8-.51.32-.85.32Z"/>
      <path class="st7" d="M527.9,215h-1.88v-9.2c-.24.18-.58.36-1.01.55-.43.19-.84.34-1.24.46l-.52-1.56c.67-.18,1.33-.45,2-.78.67-.34,1.22-.7,1.66-1.08h.99v11.61Z"/>
      <path class="st7" d="M530.87,215v-.71c0-.53.08-1,.23-1.42.15-.42.36-.8.63-1.14.26-.35.58-.68.96-.99.37-.31.79-.62,1.24-.95.37-.26.68-.51.95-.75.26-.24.48-.48.65-.72.17-.22.3-.46.39-.72.08-.26.13-.55.13-.86,0-.51-.15-.93-.46-1.26-.3-.33-.73-.49-1.29-.49-.42,0-.85.09-1.31.28s-.88.47-1.29.85l-1.03-1.14c.56-.52,1.15-.91,1.78-1.16.63-.25,1.32-.37,2.08-.37,1.08,0,1.92.3,2.51.91.6.61.9,1.33.9,2.15,0,.54-.07,1.01-.21,1.4s-.32.74-.55,1.06c-.24.33-.53.64-.85.93-.33.29-.69.58-1.08.85-.4.28-.74.53-1.03.75-.29.22-.53.43-.72.63-.19.21-.33.41-.43.61-.1.2-.14.41-.14.64h5.24v1.61h-7.28Z"/>
      <path class="st7" d="M539.87,214.04l.92-1.2c.38.3.77.52,1.16.66.4.14.81.21,1.25.21.66,0,1.19-.19,1.59-.58s.6-.89.6-1.5c0-.68-.23-1.2-.68-1.55s-1.11-.53-1.98-.53c-.3,0-.62.01-.97.03s-.68.05-1.01.1l.41-6.01h5.61v1.59h-4.11l-.19,2.82c.18-.01.37-.02.55-.03.18,0,.35-.01.49-.01,1.18,0,2.11.31,2.78.92.67.61,1,1.45,1,2.52s-.37,2-1.11,2.7c-.74.7-1.71,1.04-2.93,1.04-.66,0-1.26-.09-1.81-.28-.55-.19-1.08-.48-1.58-.88Z"/>
      <path class="st7" d="M551.68,214.72c-.38,1.26-.95,2.43-1.69,3.51h-1.2c.36-.53.71-1.21,1.02-2.05.32-.84.57-1.75.76-2.72.19-.98.29-1.92.29-2.83s-.1-1.85-.29-2.82c-.19-.97-.45-1.88-.76-2.72-.32-.84-.66-1.52-1.02-2.05h1.2c1.5,2.18,2.26,4.7,2.28,7.59,0,1.47-.2,2.84-.59,4.09Z"/>
    </g>
    <g class="st8">
      <line class="st7" x1="379.19" y1="209.58" x2="402.28" y2="209.58"/>
      <g>
        <line class="st1" x1="380.42" y1="209.58" x2="402.28" y2="209.58"/>
        <polygon class="st7" points="384.18 214.22 384.95 213.39 380.86 209.58 384.95 205.78 384.18 204.94 379.19 209.58 384.18 214.22"/>
      </g>
    </g>
  </g>
  <g id="Num.">
    <path class="st12" d="M123.76,471.82c-1.15,0-2.02-.45-2.6-1.34s-.87-2.19-.87-3.9c0-1.83.31-3.22.93-4.18.62-.96,1.51-1.44,2.66-1.44,1.21,0,2.09.45,2.64,1.34.55.89.83,2.24.83,4.03s-.31,3.13-.92,4.08c-.62.95-1.5,1.42-2.67,1.42ZM123.85,462.31c-.62,0-1.09.35-1.38,1.05-.3.7-.44,1.75-.44,3.15,0,1.31.15,2.3.44,2.96.29.66.75.98,1.36.98s1.08-.33,1.36-1.01c.28-.67.42-1.68.42-3.03s-.14-2.39-.42-3.08c-.28-.69-.73-1.03-1.34-1.03Z"/>
    <path class="st12" d="M57.27,402.07l1.38-.75c.21.42.47.75.81.98s.75.34,1.26.34c.55,0,.99-.17,1.33-.51.33-.34.5-.81.5-1.41,0-.66-.23-1.15-.68-1.47-.46-.32-1.07-.48-1.83-.48-.28,0-.59.01-.94.03-.35.02-.67.05-.97.08l.37-5.54h5.21v1.45h-3.84l-.18,2.62c.16,0,.33-.02.49-.03.17,0,.34-.01.51-.01,1.15,0,2.03.3,2.65.89.62.59.93,1.36.93,2.3,0,1.04-.33,1.88-.99,2.51-.66.64-1.52.95-2.59.95-.81,0-1.5-.17-2.08-.51-.58-.34-1.02-.82-1.34-1.45Z"/>
    <g>
      <path class="st12" d="M55.03,353.85h-1.7v-8.58c-.31.21-.66.4-1.03.56-.37.17-.75.31-1.13.42l-.44-1.4c.59-.17,1.16-.4,1.74-.71.57-.3,1.06-.65,1.48-1.04h1.08v10.74Z"/>
      <path class="st12" d="M60.73,354.04c-1.15,0-2.02-.45-2.6-1.34s-.87-2.19-.87-3.9c0-1.83.31-3.22.93-4.18.62-.96,1.51-1.44,2.66-1.44,1.21,0,2.09.45,2.64,1.34.55.89.83,2.24.83,4.03s-.31,3.13-.92,4.08c-.62.95-1.5,1.42-2.67,1.42ZM60.82,344.53c-.62,0-1.09.35-1.38,1.05-.3.7-.44,1.75-.44,3.15,0,1.31.15,2.3.44,2.96.29.66.75.98,1.36.98s1.08-.33,1.36-1.01c.28-.67.42-1.68.42-3.03s-.14-2.39-.42-3.08c-.28-.69-.73-1.03-1.34-1.03Z"/>
    </g>
    <g>
      <path class="st12" d="M55.03,303.85h-1.7v-8.58c-.31.21-.66.4-1.03.56-.37.17-.75.31-1.13.42l-.44-1.4c.59-.17,1.16-.4,1.74-.71.57-.3,1.06-.65,1.48-1.04h1.08v10.74Z"/>
      <path class="st12" d="M57.27,302.07l1.38-.75c.21.42.47.75.81.98s.75.34,1.26.34c.55,0,.99-.17,1.33-.51.33-.34.5-.81.5-1.41,0-.66-.23-1.15-.68-1.47-.46-.32-1.07-.48-1.83-.48-.28,0-.59.01-.94.03-.35.02-.67.05-.97.08l.37-5.54h5.21v1.45h-3.84l-.18,2.62c.16,0,.33-.02.49-.03.17,0,.34-.01.51-.01,1.15,0,2.03.3,2.65.89.62.59.93,1.36.93,2.3,0,1.04-.33,1.88-.99,2.51-.66.64-1.52.95-2.59.95-.81,0-1.5-.17-2.08-.51-.58-.34-1.02-.82-1.34-1.45Z"/>
    </g>
    <g>
      <path class="st12" d="M49.2,253.85v-.64c0-.49.07-.92.21-1.3s.33-.73.57-1.05c.25-.32.55-.63.89-.91.35-.29.73-.58,1.15-.89.35-.25.64-.49.89-.71.25-.23.45-.45.6-.68s.27-.46.35-.7c.08-.24.12-.49.12-.75,0-.53-.15-.93-.44-1.2s-.67-.41-1.13-.41-.88.13-1.2.4c-.33.27-.6.65-.83,1.14l-1.39-.6c.36-.75.83-1.33,1.42-1.74.59-.41,1.31-.62,2.16-.62.91,0,1.66.26,2.25.78.59.52.88,1.26.88,2.21,0,.39-.06.76-.18,1.11-.12.35-.29.68-.5.99-.22.31-.47.6-.76.88-.29.28-.62.55-1,.82-.36.27-.68.5-.95.7s-.5.39-.67.58c-.18.2-.3.38-.37.56s-.11.38-.11.59h4.77v1.46h-6.72Z"/>
      <path class="st12" d="M60.73,254.04c-1.15,0-2.02-.45-2.6-1.34s-.87-2.19-.87-3.9c0-1.83.31-3.22.93-4.18.62-.96,1.51-1.44,2.66-1.44,1.21,0,2.09.45,2.64,1.34.55.89.83,2.24.83,4.03s-.31,3.13-.92,4.08c-.62.95-1.5,1.42-2.67,1.42ZM60.82,244.53c-.62,0-1.09.35-1.38,1.05-.3.7-.44,1.75-.44,3.15,0,1.31.15,2.3.44,2.95.29.66.75.98,1.36.98s1.08-.33,1.36-1.01c.28-.67.42-1.68.42-3.03s-.14-2.39-.42-3.08c-.28-.69-.73-1.03-1.34-1.03Z"/>
    </g>
    <g>
      <path class="st12" d="M49.2,203.85v-.64c0-.49.07-.92.21-1.3s.33-.73.57-1.05c.25-.32.55-.63.89-.91.35-.29.73-.58,1.15-.89.35-.25.64-.49.89-.71.25-.23.45-.45.6-.68s.27-.46.35-.7c.08-.24.12-.49.12-.75,0-.53-.15-.93-.44-1.2s-.67-.41-1.13-.41-.88.13-1.2.4c-.33.27-.6.65-.83,1.14l-1.39-.6c.36-.75.83-1.33,1.42-1.74.59-.41,1.31-.62,2.16-.62.91,0,1.66.26,2.25.78.59.52.88,1.26.88,2.21,0,.39-.06.76-.18,1.11-.12.35-.29.68-.5.99-.22.31-.47.6-.76.88-.29.28-.62.55-1,.82-.36.27-.68.5-.95.7s-.5.39-.67.58c-.18.2-.3.38-.37.56s-.11.38-.11.59h4.77v1.46h-6.72Z"/>
      <path class="st12" d="M57.27,202.07l1.38-.75c.21.42.47.75.81.98s.75.34,1.26.34c.55,0,.99-.17,1.33-.51.33-.34.5-.81.5-1.41,0-.66-.23-1.15-.68-1.47-.46-.32-1.07-.48-1.83-.48-.28,0-.59.01-.94.03-.35.02-.67.05-.97.08l.37-5.54h5.21v1.45h-3.84l-.18,2.62c.16,0,.33-.02.49-.03.17,0,.34-.01.51-.01,1.15,0,2.03.3,2.65.89.62.59.93,1.36.93,2.3,0,1.04-.33,1.88-.99,2.51-.66.64-1.52.95-2.59.95-.81,0-1.5-.17-2.08-.51-.58-.34-1.02-.82-1.34-1.45Z"/>
    </g>
    <g>
      <path class="st12" d="M48.95,152.11l1.36-.75c.18.41.44.72.78.95.34.22.76.33,1.27.33.56,0,1.02-.15,1.36-.44.35-.29.52-.72.52-1.27,0-.59-.23-1.03-.68-1.33-.45-.3-1.11-.45-1.97-.45h-.83v-1.38h.78c.78,0,1.37-.14,1.76-.42.39-.28.59-.7.59-1.26,0-.5-.15-.88-.44-1.13-.29-.26-.64-.38-1.05-.38s-.74.1-1.05.3c-.31.2-.58.53-.79.97l-1.33-.62c.33-.66.78-1.17,1.34-1.52.56-.35,1.22-.52,1.99-.52.94,0,1.69.24,2.25.71.56.47.84,1.13.84,1.97,0,.56-.15,1.06-.44,1.49-.29.43-.74.77-1.36,1.01v.03c.63.12,1.15.39,1.55.83.4.44.6,1.01.6,1.72,0,.92-.33,1.67-.98,2.24-.65.58-1.52.86-2.61.86-.79,0-1.48-.16-2.08-.48s-1.05-.81-1.37-1.45Z"/>
      <path class="st12" d="M60.73,154.04c-1.15,0-2.02-.45-2.6-1.34s-.87-2.19-.87-3.9c0-1.83.31-3.22.93-4.18.62-.96,1.51-1.44,2.66-1.44,1.21,0,2.09.45,2.64,1.34.55.89.83,2.24.83,4.03s-.31,3.13-.92,4.08c-.62.95-1.5,1.42-2.67,1.42ZM60.82,144.53c-.62,0-1.09.35-1.38,1.05-.3.7-.44,1.75-.44,3.15,0,1.31.15,2.3.44,2.96.29.66.75.98,1.36.98s1.08-.33,1.36-1.01c.28-.67.42-1.68.42-3.03s-.14-2.39-.42-3.08c-.28-.69-.73-1.03-1.34-1.03Z"/>
    </g>
    <g>
      <path class="st12" d="M48.95,102.11l1.36-.75c.18.41.44.72.78.95.34.22.76.33,1.27.33.56,0,1.02-.15,1.36-.44.35-.29.52-.72.52-1.27,0-.59-.23-1.03-.68-1.33-.45-.3-1.11-.45-1.97-.45h-.83v-1.38h.78c.78,0,1.37-.14,1.76-.42.39-.28.59-.7.59-1.26,0-.5-.15-.88-.44-1.13-.29-.26-.64-.38-1.05-.38s-.74.1-1.05.3c-.31.2-.58.53-.79.97l-1.33-.62c.33-.66.78-1.17,1.34-1.52.56-.35,1.22-.52,1.99-.52.94,0,1.69.24,2.25.71.56.47.84,1.13.84,1.97,0,.56-.15,1.06-.44,1.49-.29.43-.74.77-1.36,1.01v.03c.63.12,1.15.39,1.55.83.4.44.6,1.01.6,1.72,0,.92-.33,1.67-.98,2.24-.65.58-1.52.86-2.61.86-.79,0-1.48-.16-2.08-.48s-1.05-.81-1.37-1.45Z"/>
      <path class="st12" d="M57.27,102.07l1.38-.75c.21.42.47.75.81.98s.75.34,1.26.34c.55,0,.99-.17,1.33-.51.33-.34.5-.81.5-1.41,0-.66-.23-1.15-.68-1.47-.46-.32-1.07-.48-1.83-.48-.28,0-.59.01-.94.03-.35.02-.67.05-.97.08l.37-5.54h5.21v1.45h-3.84l-.18,2.62c.16,0,.33-.02.49-.03.17,0,.34-.01.51-.01,1.15,0,2.03.3,2.65.89.62.59.93,1.36.93,2.3,0,1.04-.33,1.88-.99,2.51-.66.64-1.52.95-2.59.95-.81,0-1.5-.17-2.08-.51-.58-.34-1.02-.82-1.34-1.45Z"/>
    </g>
    <path class="st12" d="M225.48,471.64h-1.7v-8.58c-.31.21-.66.4-1.03.56-.37.17-.75.31-1.13.42l-.44-1.4c.59-.17,1.16-.4,1.74-.71.57-.3,1.06-.65,1.48-1.04h1.08v10.74Z"/>
    <path class="st12" d="M320.84,471.64v-.64c0-.49.07-.92.21-1.3s.33-.73.57-1.05c.25-.32.55-.63.89-.91.35-.29.73-.58,1.15-.89.35-.25.64-.49.89-.71.25-.23.45-.45.6-.68s.27-.46.35-.7c.08-.24.12-.49.12-.75,0-.53-.15-.93-.44-1.2s-.67-.41-1.13-.41-.88.13-1.2.4c-.33.27-.6.65-.83,1.14l-1.39-.6c.36-.75.83-1.33,1.42-1.74.59-.41,1.31-.62,2.16-.62.91,0,1.66.26,2.25.78.59.52.88,1.26.88,2.21,0,.39-.06.76-.18,1.11-.12.35-.29.68-.5.99-.22.31-.47.6-.76.88-.29.28-.62.55-1,.82-.36.27-.68.5-.95.7s-.5.39-.67.58c-.18.2-.3.38-.37.56s-.11.38-.11.59h4.77v1.46h-6.72Z"/>
    <path class="st12" d="M420.55,469.89l1.36-.75c.18.41.44.72.78.95.34.22.76.33,1.27.33.56,0,1.02-.15,1.36-.44.35-.29.52-.72.52-1.27,0-.59-.23-1.03-.68-1.33-.45-.3-1.11-.45-1.97-.45h-.83v-1.38h.78c.78,0,1.37-.14,1.76-.42.39-.28.59-.7.59-1.26,0-.5-.15-.88-.44-1.13-.29-.26-.64-.38-1.05-.38s-.74.1-1.05.3c-.31.2-.58.53-.79.97l-1.33-.62c.33-.66.78-1.17,1.34-1.52.56-.35,1.22-.52,1.99-.52.94,0,1.69.24,2.25.71.56.47.84,1.13.84,1.97,0,.56-.15,1.06-.44,1.49-.29.43-.74.77-1.36,1.01v.03c.63.12,1.15.39,1.55.83.4.44.6,1.01.6,1.72,0,.92-.33,1.67-.98,2.24-.65.58-1.52.86-2.61.86-.79,0-1.48-.16-2.08-.48s-1.05-.81-1.37-1.45Z"/>
    <path class="st12" d="M526.68,461.08v6.86h1.07v1.4h-1.07v2.35h-1.65v-2.35h-4.69v-1.4c.42-.49.86-1.03,1.31-1.6.45-.57.88-1.16,1.29-1.75s.79-1.19,1.14-1.79c.35-.6.65-1.17.89-1.72h1.71ZM522.01,467.95h3.02v-4.5c-.27.5-.54.96-.81,1.39s-.53.83-.78,1.19c-.25.37-.5.71-.74,1.03-.24.31-.47.61-.69.89Z"/>
    <path class="st12" d="M620.54,469.86l1.38-.75c.21.42.47.75.81.98.33.23.75.34,1.26.34.55,0,.99-.17,1.33-.51.33-.34.5-.81.5-1.41,0-.66-.23-1.15-.68-1.47-.46-.32-1.07-.48-1.83-.48-.28,0-.59.01-.95.03-.35.02-.67.05-.97.08l.37-5.54h5.21v1.45h-3.84l-.18,2.62c.16,0,.33-.02.49-.03.17,0,.34-.01.51-.01,1.15,0,2.03.3,2.65.89.62.59.93,1.36.93,2.3,0,1.04-.33,1.88-.99,2.51-.66.64-1.52.95-2.58.95-.81,0-1.5-.17-2.08-.51-.58-.34-1.02-.82-1.34-1.45Z"/>
    <path class="st12" d="M727.53,468.17c0,1.07-.32,1.95-.97,2.63-.65.68-1.46,1.03-2.43,1.03-1.12,0-1.99-.41-2.6-1.24-.61-.83-.92-2.06-.92-3.71,0-.98.12-1.88.35-2.71.23-.83.58-1.51,1.05-2.03.35-.39.75-.68,1.2-.87.45-.2.94-.29,1.45-.29.61,0,1.16.15,1.66.45s.89.74,1.16,1.31l-1.28.68c-.15-.32-.36-.57-.62-.76s-.59-.29-.97-.29c-.27,0-.53.05-.77.16-.24.11-.47.29-.7.54-.29.32-.5.74-.65,1.28-.14.53-.22,1.12-.23,1.76h.04c.3-.37.64-.65,1.03-.83.39-.18.82-.27,1.29-.27.9,0,1.61.3,2.14.89.53.59.79,1.36.79,2.29ZM725.89,468.32c0-.59-.15-1.07-.45-1.44-.3-.37-.73-.55-1.27-.55s-1,.19-1.33.57-.49.83-.49,1.35c0,.62.16,1.14.49,1.55s.76.62,1.29.62.96-.19,1.29-.57c.32-.38.48-.89.48-1.53Z"/>
    <g>
      <g>
        <path class="st12" d="M107.53,262.12h-2.77v-9.62c-.32.22-.68.4-1.07.55s-.82.3-1.28.45l-.76-2.21c.8-.23,1.56-.53,2.28-.88s1.35-.74,1.92-1.18h1.68v12.89Z"/>
        <path class="st12" d="M118.97,251.11c-1.13,2.02-2.03,3.84-2.7,5.47s-1.15,3.47-1.46,5.54h-2.91c.32-1.96.85-3.79,1.59-5.48s1.59-3.31,2.55-4.85h-5.87v-2.27h8.8v1.6Z"/>
        <path class="st12" d="M122.2,262.34c-.47,0-.87-.14-1.17-.43-.31-.28-.46-.65-.46-1.08s.15-.8.46-1.08.7-.43,1.17-.43.87.14,1.17.43.46.65.46,1.08-.15.8-.46,1.08c-.3.28-.7.43-1.18.43Z"/>
        <path class="st12" d="M125.39,258.73c0-.71.19-1.35.56-1.91.37-.56.93-1,1.68-1.3-.57-.33-1.01-.74-1.32-1.23s-.47-1.03-.47-1.63c0-.96.38-1.76,1.13-2.4.75-.63,1.72-.95,2.89-.95s2.14.31,2.9.94,1.13,1.42,1.13,2.37c0,.6-.17,1.14-.51,1.62s-.8.89-1.39,1.22c.75.3,1.31.74,1.69,1.31s.57,1.22.57,1.93c0,1.08-.41,1.95-1.22,2.62s-1.88,1-3.19,1-2.37-.33-3.2-1-1.24-1.53-1.24-2.59ZM127.95,258.49c0,.57.17,1.03.52,1.35s.8.49,1.36.49c.53,0,.98-.17,1.33-.5s.53-.78.53-1.34c0-.51-.17-.95-.52-1.31s-.79-.55-1.34-.55-.99.18-1.34.53-.54.8-.54,1.33ZM128.33,252.88c0,.49.15.88.46,1.18s.66.45,1.07.45.78-.15,1.08-.44.46-.69.46-1.19-.15-.88-.45-1.16-.66-.42-1.09-.42-.8.14-1.09.43-.44.67-.44,1.15Z"/>
        <path class="st12" d="M138.76,255.9c-.9,0-1.62-.28-2.17-.85s-.82-1.33-.82-2.29c0-1.05.29-1.88.87-2.5s1.36-.92,2.33-.92,1.66.28,2.18.83.79,1.34.79,2.35-.29,1.86-.87,2.47-1.35.91-2.32.91ZM147.97,249.51l-8.21,12.6h-2.14l8.19-12.6h2.16ZM138.93,250.89c-.43,0-.75.15-.96.44-.21.3-.32.74-.32,1.34,0,.56.1.98.31,1.27s.51.42.91.42.73-.15.94-.44.31-.73.31-1.32-.1-1-.29-1.29c-.2-.28-.49-.43-.89-.43ZM146.61,262.29c-.9,0-1.62-.28-2.17-.85s-.82-1.33-.82-2.29c0-1.05.29-1.88.87-2.5s1.36-.92,2.33-.92,1.67.28,2.19.83.78,1.33.78,2.34-.29,1.86-.87,2.48-1.35.92-2.32.92ZM146.75,257.28c-.42,0-.74.15-.95.44s-.32.74-.32,1.34c0,.56.1.98.31,1.27s.52.42.93.42.73-.15.94-.44.31-.73.31-1.32c0-.54-.11-.97-.33-1.27s-.52-.45-.88-.45Z"/>
      </g>
      <g>
        <path class="st12" d="M201.47,83.64l1.06-1.85c.47.27.88.47,1.24.59s.8.18,1.34.18c.71,0,1.23-.17,1.56-.5s.5-.72.5-1.16c0-.61-.24-1.07-.73-1.37s-1.16-.46-2.02-.46h-1.03v-2.13h.94c.82,0,1.44-.14,1.85-.41.41-.27.62-.73.62-1.37,0-.46-.13-.81-.39-1.05s-.63-.35-1.12-.35c-.35,0-.74.06-1.17.19-.43.13-.88.33-1.36.6l-1-1.84c.65-.38,1.29-.65,1.91-.82.62-.17,1.31-.25,2.07-.25,1.16,0,2.1.29,2.82.87s1.08,1.33,1.08,2.26c0,.77-.18,1.42-.54,1.93s-.9.9-1.62,1.16v.04c.78.15,1.4.49,1.85,1.02.45.54.68,1.18.68,1.92,0,1.11-.41,2.03-1.24,2.75-.83.72-1.95,1.08-3.36,1.08-.74,0-1.42-.08-2.04-.25-.62-.17-1.26-.43-1.89-.8Z"/>
        <path class="st12" d="M211.78,83.38l1.28-1.7c.4.3.82.53,1.24.67s.84.21,1.27.21c.64,0,1.13-.17,1.49-.52s.53-.8.53-1.34c0-.68-.22-1.17-.67-1.49s-1.11-.47-2-.47c-.32,0-.67.01-1.05.04-.38.03-.78.06-1.2.11l.47-7.03h6.67v2.27h-4.55l-.18,2.52c.23-.02.44-.03.63-.04.19,0,.37-.01.54-.01,1.29,0,2.31.34,3.04,1.02s1.1,1.62,1.1,2.82-.42,2.23-1.25,3.04-1.98,1.21-3.45,1.21c-.75,0-1.44-.11-2.07-.32s-1.24-.54-1.85-.99Z"/>
        <path class="st12" d="M223.71,84.69c-.47,0-.87-.14-1.17-.43-.31-.28-.46-.65-.46-1.08s.15-.8.46-1.08.7-.43,1.17-.43.87.14,1.17.43.46.65.46,1.08-.15.8-.46,1.08c-.3.28-.7.43-1.18.43Z"/>
        <path class="st12" d="M235.62,80.36c0,1.24-.4,2.27-1.19,3.09s-1.81,1.24-3.04,1.24c-1.38,0-2.45-.51-3.22-1.52s-1.15-2.46-1.15-4.33c0-1.08.12-2.07.36-2.96s.6-1.65,1.08-2.28c.47-.63,1.02-1.11,1.66-1.44s1.44-.5,2.41-.5c.42,0,.87.07,1.35.21s.99.42,1.52.84l-1.42,1.63c-.23-.19-.47-.34-.7-.43s-.52-.14-.86-.14c-.42,0-.78.09-1.1.26-.32.17-.61.43-.87.76-.25.32-.45.71-.58,1.17s-.21.96-.22,1.51h.05c.32-.36.69-.64,1.12-.82.43-.19.92-.28,1.46-.28,1.01,0,1.82.36,2.43,1.08s.91,1.69.91,2.91ZM233.02,80.46c0-.68-.14-1.19-.41-1.52s-.65-.51-1.14-.51c-.56,0-.99.19-1.3.57-.31.38-.46.86-.46,1.44s.15,1.1.46,1.52c.31.41.71.62,1.21.62s.9-.19,1.2-.56.44-.89.44-1.55Z"/>
        <path class="st12" d="M240.28,78.26c-.9,0-1.62-.28-2.17-.85s-.82-1.33-.82-2.29c0-1.05.29-1.88.87-2.5s1.36-.92,2.33-.92,1.66.28,2.18.83.79,1.34.79,2.35-.29,1.86-.87,2.47-1.35.91-2.32.91ZM249.48,71.87l-8.21,12.6h-2.14l8.19-12.6h2.16ZM240.44,73.24c-.43,0-.75.15-.96.44-.21.3-.32.74-.32,1.34,0,.56.1.98.31,1.27s.51.42.91.42.73-.15.94-.44.31-.73.31-1.32-.1-1-.29-1.29c-.2-.28-.49-.43-.89-.43ZM248.12,84.65c-.9,0-1.62-.28-2.17-.85s-.82-1.33-.82-2.29c0-1.05.29-1.88.87-2.5s1.36-.92,2.33-.92,1.67.28,2.19.83.78,1.33.78,2.34-.29,1.86-.87,2.48-1.35.92-2.32.92ZM248.26,79.63c-.42,0-.74.15-.95.44s-.32.74-.32,1.34c0,.56.1.98.31,1.27s.52.42.93.42.73-.15.94-.44.31-.73.31-1.32c0-.54-.11-.97-.33-1.27s-.52-.45-.88-.45Z"/>
      </g>
      <g>
        <path class="st12" d="M296.48,144.73v-.95c0-.64.11-1.22.33-1.74.22-.51.49-.97.82-1.38.33-.4.69-.76,1.08-1.08.39-.31.76-.6,1.11-.85.37-.26.69-.51.96-.74.27-.24.51-.47.72-.69.22-.23.37-.48.47-.74.1-.26.15-.57.15-.92,0-.43-.14-.79-.41-1.08-.27-.29-.67-.44-1.2-.44-.34,0-.77.09-1.3.26s-1.04.45-1.55.83l-1.34-1.77c.71-.53,1.43-.92,2.18-1.17.74-.25,1.56-.37,2.45-.37,1.21,0,2.17.33,2.88.98s1.07,1.45,1.07,2.39c0,.74-.09,1.33-.27,1.78s-.42.85-.72,1.21c-.29.37-.63.71-1.02,1.01-.39.31-.79.61-1.2.89-.28.2-.55.4-.81.59s-.49.39-.69.58c-.2.19-.36.38-.47.56s-.18.35-.18.52h5.34v2.3h-8.38Z"/>
        <path class="st12" d="M315.26,137.83c0,2.26-.43,4.01-1.3,5.26s-2.21,1.87-4.03,1.87c-.64,0-1.22-.09-1.75-.28s-1.04-.48-1.54-.89l1.34-1.65c.3.24.6.42.92.53s.7.17,1.15.17c.87,0,1.53-.31,1.98-.94s.68-1.53.69-2.72l-.05-.02c-.27.36-.61.64-1.02.82-.41.19-.9.28-1.45.28-1,0-1.83-.37-2.48-1.09-.65-.73-.98-1.66-.98-2.79,0-1.33.4-2.4,1.19-3.22.79-.82,1.82-1.23,3.09-1.23s2.36.52,3.11,1.56,1.13,2.49,1.13,4.35ZM312.61,136.35c0-.64-.15-1.19-.46-1.64-.31-.45-.71-.67-1.21-.67s-.86.2-1.17.6-.46.9-.46,1.49c0,.66.16,1.17.47,1.52.31.36.72.53,1.22.53s.88-.18,1.17-.54.44-.79.44-1.3Z"/>
        <path class="st12" d="M318.57,144.95c-.47,0-.87-.14-1.17-.43-.31-.28-.46-.65-.46-1.08s.15-.8.46-1.08.7-.43,1.17-.43.87.14,1.17.43.46.65.46,1.08-.15.8-.46,1.08c-.3.28-.7.43-1.18.43Z"/>
        <path class="st12" d="M330.48,140.62c0,1.24-.4,2.27-1.19,3.09s-1.81,1.24-3.04,1.24c-1.38,0-2.45-.51-3.22-1.52s-1.15-2.46-1.15-4.33c0-1.08.12-2.07.36-2.96s.6-1.65,1.08-2.28c.47-.63,1.02-1.11,1.66-1.44s1.44-.5,2.41-.5c.42,0,.87.07,1.35.21s.99.42,1.52.84l-1.42,1.63c-.23-.19-.47-.34-.7-.43s-.52-.14-.86-.14c-.42,0-.78.09-1.1.26-.32.17-.61.43-.87.76-.25.32-.45.71-.58,1.17s-.21.96-.22,1.51h.05c.32-.36.69-.64,1.12-.82.43-.19.92-.28,1.46-.28,1.01,0,1.82.36,2.43,1.08s.91,1.69.91,2.91ZM327.88,140.72c0-.68-.14-1.19-.41-1.52s-.65-.51-1.14-.51c-.56,0-.99.19-1.3.57-.31.38-.46.86-.46,1.44s.15,1.1.46,1.52c.31.41.71.62,1.21.62s.9-.19,1.2-.56.44-.89.44-1.55Z"/>
        <path class="st12" d="M340.83,140.62c0,1.24-.4,2.27-1.19,3.09s-1.81,1.24-3.04,1.24c-1.38,0-2.45-.51-3.22-1.52s-1.15-2.46-1.15-4.33c0-1.08.12-2.07.36-2.96s.6-1.65,1.08-2.28c.47-.63,1.02-1.11,1.66-1.44s1.44-.5,2.41-.5c.42,0,.87.07,1.35.21s.99.42,1.52.84l-1.42,1.63c-.23-.19-.47-.34-.7-.43s-.52-.14-.86-.14c-.42,0-.78.09-1.1.26-.32.17-.61.43-.87.76-.25.32-.45.71-.58,1.17s-.21.96-.22,1.51h.05c.32-.36.69-.64,1.12-.82.43-.19.92-.28,1.46-.28,1.01,0,1.82.36,2.43,1.08s.91,1.69.91,2.91ZM338.24,140.72c0-.68-.14-1.19-.41-1.52s-.65-.51-1.14-.51c-.56,0-.99.19-1.3.57-.31.38-.46.86-.46,1.44s.15,1.1.46,1.52c.31.41.71.62,1.21.62s.9-.19,1.2-.56.44-.89.44-1.55Z"/>
        <path class="st12" d="M345.49,138.52c-.9,0-1.62-.28-2.17-.85s-.82-1.33-.82-2.29c0-1.05.29-1.88.87-2.5s1.36-.92,2.33-.92,1.66.28,2.18.83.79,1.34.79,2.35-.29,1.86-.87,2.47-1.35.91-2.32.91ZM354.69,132.13l-8.21,12.6h-2.14l8.19-12.6h2.16ZM345.65,133.5c-.43,0-.75.15-.96.44-.21.3-.32.74-.32,1.34,0,.56.1.98.31,1.27s.51.42.91.42.73-.15.94-.44.31-.73.31-1.32-.1-1-.29-1.29c-.2-.28-.49-.43-.89-.43ZM353.34,144.91c-.9,0-1.62-.28-2.17-.85s-.82-1.33-.82-2.29c0-1.05.29-1.88.87-2.5s1.36-.92,2.33-.92,1.67.28,2.19.83.78,1.33.78,2.34-.29,1.86-.87,2.48-1.35.92-2.32.92ZM353.48,139.89c-.42,0-.74.15-.95.44s-.32.74-.32,1.34c0,.56.1.98.31,1.27s.52.42.93.42.73-.15.94-.44.31-.73.31-1.32c0-.54-.11-.97-.33-1.27s-.52-.45-.88-.45Z"/>
      </g>
      <g>
        <path class="st12" d="M403.86,309.81h-2.77v-9.62c-.32.22-.68.4-1.07.55s-.82.3-1.28.45l-.76-2.21c.8-.23,1.56-.53,2.28-.88s1.35-.74,1.92-1.18h1.68v12.88Z"/>
        <path class="st12" d="M406.65,308.98l1.06-1.85c.47.27.88.47,1.24.59s.8.18,1.34.18c.71,0,1.23-.17,1.56-.5s.5-.72.5-1.16c0-.61-.24-1.07-.73-1.37s-1.16-.46-2.02-.46h-1.03v-2.13h.94c.82,0,1.44-.14,1.85-.41.41-.27.62-.73.62-1.37,0-.46-.13-.81-.39-1.05s-.63-.35-1.12-.35c-.35,0-.74.06-1.17.19-.43.13-.88.33-1.36.6l-1-1.84c.65-.38,1.29-.65,1.91-.82.62-.17,1.31-.25,2.07-.25,1.16,0,2.1.29,2.82.87s1.08,1.33,1.08,2.26c0,.77-.18,1.42-.54,1.93s-.9.9-1.62,1.16v.04c.78.15,1.4.49,1.85,1.02.45.54.68,1.18.68,1.92,0,1.11-.41,2.03-1.24,2.75-.83.72-1.95,1.08-3.36,1.08-.74,0-1.42-.08-2.04-.25-.62-.17-1.26-.43-1.89-.8Z"/>
        <path class="st12" d="M418.53,310.03c-.47,0-.87-.14-1.17-.43-.31-.28-.46-.65-.46-1.08s.15-.8.46-1.08.7-.43,1.17-.43.87.14,1.17.43.46.65.46,1.08-.15.8-.46,1.08c-.3.28-.7.43-1.18.43Z"/>
        <path class="st12" d="M426.93,309.81h-2.77v-9.62c-.32.22-.68.4-1.07.55s-.82.3-1.28.45l-.76-2.21c.8-.23,1.56-.53,2.28-.88s1.35-.74,1.92-1.18h1.68v12.88Z"/>
        <path class="st12" d="M429.55,306.42c0-.71.19-1.35.56-1.91.37-.56.93-1,1.68-1.3-.57-.33-1.01-.74-1.32-1.23s-.47-1.03-.47-1.63c0-.96.38-1.76,1.13-2.4.75-.63,1.72-.95,2.89-.95s2.14.31,2.9.94,1.13,1.42,1.13,2.37c0,.6-.17,1.14-.51,1.62s-.8.89-1.39,1.22c.75.3,1.31.74,1.69,1.31s.57,1.22.57,1.93c0,1.08-.41,1.95-1.22,2.62s-1.88,1-3.19,1-2.37-.33-3.2-1-1.24-1.53-1.24-2.59ZM432.12,306.18c0,.57.17,1.03.52,1.35s.8.49,1.36.49c.53,0,.98-.17,1.33-.5s.53-.78.53-1.34c0-.51-.17-.95-.52-1.31s-.79-.55-1.34-.55-.99.18-1.34.53-.54.8-.54,1.33ZM432.5,300.57c0,.49.15.88.46,1.18s.66.45,1.07.45.78-.15,1.08-.44.46-.69.46-1.19-.15-.88-.45-1.16-.66-.42-1.09-.42-.8.14-1.09.43-.44.67-.44,1.15Z"/>
        <path class="st12" d="M442.93,303.6c-.9,0-1.62-.28-2.17-.85s-.82-1.33-.82-2.29c0-1.05.29-1.88.87-2.5s1.36-.92,2.33-.92,1.66.28,2.18.83.79,1.34.79,2.35-.29,1.86-.87,2.47-1.35.91-2.32.91ZM452.13,297.21l-8.21,12.6h-2.14l8.19-12.6h2.16ZM443.1,298.58c-.43,0-.75.15-.96.44-.21.3-.32.74-.32,1.34,0,.56.1.98.31,1.27s.51.42.91.42.73-.15.94-.44.31-.73.31-1.32-.1-1-.29-1.29c-.2-.28-.49-.43-.89-.43ZM450.78,309.99c-.9,0-1.62-.28-2.17-.85s-.82-1.33-.82-2.29c0-1.05.29-1.88.87-2.5s1.36-.92,2.33-.92,1.67.28,2.19.83.78,1.33.78,2.34-.29,1.86-.87,2.48-1.35.92-2.32.92ZM450.92,304.97c-.42,0-.74.15-.95.44s-.32.74-.32,1.34c0,.56.1.98.31,1.27s.52.42.93.42.73-.15.94-.44.31-.73.31-1.32c0-.54-.11-.97-.33-1.27s-.52-.45-.88-.45Z"/>
      </g>
      <g>
        <path class="st12" d="M506.68,408.19l1.06-1.85c.47.27.88.47,1.24.59s.8.18,1.34.18c.71,0,1.23-.17,1.56-.5s.5-.72.5-1.16c0-.61-.24-1.07-.73-1.37s-1.16-.46-2.02-.46h-1.03v-2.13h.94c.82,0,1.44-.14,1.85-.41.41-.27.62-.73.62-1.37,0-.46-.13-.81-.39-1.05s-.63-.35-1.12-.35c-.35,0-.74.06-1.17.19-.43.13-.88.33-1.36.6l-1-1.84c.65-.38,1.29-.65,1.91-.82.62-.17,1.31-.25,2.07-.25,1.16,0,2.1.29,2.82.87s1.08,1.33,1.08,2.26c0,.77-.18,1.42-.54,1.93s-.9.9-1.62,1.16v.04c.78.15,1.4.49,1.85,1.02.45.54.68,1.18.68,1.92,0,1.11-.41,2.03-1.24,2.75-.83.72-1.95,1.08-3.36,1.08-.74,0-1.42-.08-2.04-.25-.62-.17-1.26-.43-1.89-.8Z"/>
        <path class="st12" d="M518.57,409.24c-.47,0-.87-.14-1.17-.43-.31-.28-.46-.65-.46-1.08s.15-.8.46-1.08.7-.43,1.17-.43.87.14,1.17.43.46.65.46,1.08-.15.8-.46,1.08c-.3.28-.7.43-1.18.43Z"/>
        <path class="st12" d="M521.92,408.19l1.06-1.85c.47.27.88.47,1.24.59s.8.18,1.34.18c.71,0,1.23-.17,1.56-.5s.5-.72.5-1.16c0-.61-.24-1.07-.73-1.37s-1.16-.46-2.02-.46h-1.03v-2.13h.94c.82,0,1.44-.14,1.85-.41.41-.27.62-.73.62-1.37,0-.46-.13-.81-.39-1.05s-.63-.35-1.12-.35c-.35,0-.74.06-1.17.19-.43.13-.88.33-1.36.6l-1-1.84c.65-.38,1.29-.65,1.91-.82.62-.17,1.31-.25,2.07-.25,1.16,0,2.1.29,2.82.87s1.08,1.33,1.08,2.26c0,.77-.18,1.42-.54,1.93s-.9.9-1.62,1.16v.04c.78.15,1.4.49,1.85,1.02.45.54.68,1.18.68,1.92,0,1.11-.41,2.03-1.24,2.75-.83.72-1.95,1.08-3.36,1.08-.74,0-1.42-.08-2.04-.25-.62-.17-1.26-.43-1.89-.8Z"/>
        <path class="st12" d="M535.13,402.81c-.9,0-1.62-.28-2.17-.85s-.82-1.33-.82-2.29c0-1.05.29-1.88.87-2.5s1.36-.92,2.33-.92,1.66.28,2.18.83.79,1.34.79,2.35-.29,1.86-.87,2.47-1.35.91-2.32.91ZM544.34,396.42l-8.21,12.6h-2.14l8.19-12.6h2.16ZM535.3,397.79c-.43,0-.75.15-.96.44-.21.3-.32.74-.32,1.34,0,.56.1.98.31,1.27s.51.42.91.42.73-.15.94-.44.31-.73.31-1.32-.1-1-.29-1.29c-.2-.28-.49-.43-.89-.43ZM542.98,409.2c-.9,0-1.62-.28-2.17-.85s-.82-1.33-.82-2.29c0-1.05.29-1.88.87-2.5s1.36-.92,2.33-.92,1.67.28,2.19.83.78,1.33.78,2.34-.29,1.86-.87,2.48-1.35.92-2.32.92ZM543.12,404.18c-.42,0-.74.15-.95.44s-.32.74-.32,1.34c0,.56.1.98.31,1.27s.52.42.93.42.73-.15.94-.44.31-.73.31-1.32c0-.54-.11-.97-.33-1.27s-.52-.45-.88-.45Z"/>
      </g>
      <g>
        <path class="st12" d="M605.73,437.79c-1.52,0-2.64-.53-3.34-1.58s-1.05-2.63-1.05-4.74.38-3.85,1.15-5,1.85-1.72,3.25-1.72c1.61,0,2.74.54,3.4,1.6.66,1.07.99,2.68.99,4.82s-.36,3.77-1.09,4.9-1.83,1.71-3.3,1.71ZM605.73,426.87c-.56,0-.96.38-1.2,1.13s-.36,1.88-.36,3.4c0,1.42.12,2.48.37,3.2.25.71.65,1.07,1.2,1.07.61,0,1.02-.37,1.24-1.1s.33-1.83.33-3.3-.11-2.56-.34-3.3-.64-1.1-1.24-1.1Z"/>
        <path class="st12" d="M613.35,437.79c-.47,0-.87-.14-1.17-.43-.31-.28-.46-.65-.46-1.08s.15-.8.46-1.08.7-.43,1.17-.43.87.14,1.17.43.46.65.46,1.08-.15.8-.46,1.08c-.3.28-.7.43-1.18.43Z"/>
        <path class="st12" d="M624.29,424.96v7.95h1.19v2.07h-1.19v2.58h-2.64v-2.58h-5.19v-2.17c.46-.54.93-1.14,1.43-1.79s.97-1.31,1.43-2c.46-.69.89-1.38,1.29-2.07.4-.69.73-1.36,1.01-1.99h2.68ZM618.87,432.91h2.78v-4.33c-.19.38-.41.77-.64,1.16-.23.39-.46.77-.7,1.15-.24.37-.48.73-.73,1.07-.25.34-.48.66-.71.96Z"/>
        <path class="st12" d="M634.64,424.96v7.95h1.19v2.07h-1.19v2.58h-2.64v-2.58h-5.19v-2.17c.46-.54.93-1.14,1.43-1.79s.97-1.31,1.43-2c.46-.69.89-1.38,1.29-2.07.4-.69.73-1.36,1.01-1.99h2.68ZM629.23,432.91h2.78v-4.33c-.19.38-.41.77-.64,1.16-.23.39-.46.77-.7,1.15-.24.37-.48.73-.73,1.07-.25.34-.48.66-.71.96Z"/>
        <path class="st12" d="M640.28,431.35c-.9,0-1.62-.28-2.17-.85s-.82-1.33-.82-2.29c0-1.05.29-1.88.88-2.5s1.36-.92,2.33-.92,1.66.28,2.18.83.79,1.34.79,2.35-.29,1.86-.87,2.47-1.35.91-2.32.91ZM649.48,424.96l-8.21,12.6h-2.14l8.19-12.6h2.16ZM640.44,426.33c-.43,0-.75.15-.96.44-.21.3-.32.74-.32,1.34,0,.56.1.98.31,1.27s.51.42.91.42.73-.15.94-.44.31-.73.31-1.32-.1-1-.29-1.29c-.2-.28-.49-.43-.89-.43ZM648.12,437.74c-.9,0-1.62-.28-2.17-.85s-.82-1.33-.82-2.29c0-1.05.29-1.88.88-2.5s1.36-.92,2.33-.92,1.67.28,2.19.83.78,1.33.78,2.34-.29,1.86-.87,2.48-1.35.92-2.32.92ZM648.26,432.72c-.42,0-.74.15-.95.44s-.32.74-.32,1.34c0,.56.1.98.31,1.27s.52.42.93.42.73-.15.94-.44.31-.73.31-1.32c0-.54-.11-.97-.33-1.27s-.52-.45-.88-.45Z"/>
      </g>
      <g>
        <path class="st12" d="M705.21,440.73c-1.57,0-2.72-.53-3.44-1.58-.72-1.05-1.09-2.63-1.09-4.74s.39-3.85,1.18-5,1.9-1.72,3.35-1.72c1.66,0,2.82.54,3.51,1.6.68,1.07,1.02,2.68,1.02,4.82s-.38,3.77-1.13,4.9c-.75,1.14-1.89,1.71-3.4,1.71ZM705.21,429.81c-.58,0-.99.38-1.24,1.13s-.37,1.88-.37,3.4c0,1.42.13,2.48.38,3.2.26.71.67,1.07,1.24,1.07.63,0,1.05-.37,1.28-1.1s.34-1.83.34-3.3-.12-2.56-.35-3.3-.66-1.1-1.27-1.1Z"/>
        <path class="st12" d="M713.07,440.73c-.49,0-.89-.14-1.21-.43-.32-.28-.48-.65-.48-1.08s.16-.8.48-1.08.72-.43,1.21-.43.89.14,1.21.43c.32.28.48.65.48,1.08s-.16.8-.47,1.08c-.31.28-.72.43-1.21.43Z"/>
        <path class="st12" d="M720.92,440.73c-1.57,0-2.72-.53-3.44-1.58-.72-1.05-1.09-2.63-1.09-4.74s.39-3.85,1.18-5,1.9-1.72,3.35-1.72c1.66,0,2.82.54,3.51,1.6.68,1.07,1.02,2.68,1.02,4.82s-.38,3.77-1.13,4.9c-.75,1.14-1.89,1.71-3.4,1.71ZM720.91,429.81c-.58,0-.99.38-1.24,1.13s-.37,1.88-.37,3.4c0,1.42.13,2.48.38,3.2.26.71.67,1.07,1.24,1.07.63,0,1.05-.37,1.28-1.1s.34-1.83.34-3.3-.12-2.56-.35-3.3-.66-1.1-1.27-1.1Z"/>
        <path class="st12" d="M727.35,440.51v-.95c0-.64.11-1.22.33-1.74.22-.51.5-.97.84-1.38.34-.4.71-.76,1.11-1.08.4-.31.78-.6,1.15-.85.38-.26.71-.51.99-.74.28-.24.53-.47.74-.69.22-.23.39-.48.49-.74.1-.26.15-.57.15-.92,0-.43-.14-.79-.42-1.08-.28-.29-.69-.44-1.24-.44-.35,0-.8.09-1.34.26-.54.18-1.08.45-1.59.83l-1.38-1.77c.73-.53,1.48-.92,2.24-1.17.76-.25,1.61-.37,2.52-.37,1.24,0,2.23.33,2.97.98s1.1,1.45,1.1,2.39c0,.74-.09,1.33-.28,1.78-.18.45-.43.85-.74,1.21-.3.37-.65.71-1.05,1.01-.4.31-.81.61-1.24.89-.29.2-.57.4-.84.59s-.51.39-.71.58c-.21.19-.37.38-.49.56s-.18.35-.18.52h5.51v2.3h-8.65Z"/>
        <path class="st12" d="M740.83,434.29c-.92,0-1.67-.28-2.23-.85-.57-.57-.85-1.33-.85-2.29,0-1.05.3-1.88.9-2.5.6-.62,1.4-.92,2.41-.92s1.71.28,2.25.83c.54.56.81,1.34.81,2.35s-.3,1.86-.9,2.47c-.6.61-1.4.91-2.39.91ZM750.32,427.9l-8.46,12.6h-2.21l8.45-12.6h2.23ZM741,429.28c-.44,0-.77.15-.99.44-.22.3-.33.74-.33,1.34,0,.56.11.98.32,1.27.21.28.53.42.94.42s.75-.15.96-.44.32-.73.32-1.32-.1-1-.3-1.29c-.2-.28-.51-.43-.92-.43ZM748.92,440.68c-.92,0-1.67-.28-2.23-.85-.57-.57-.85-1.33-.85-2.29,0-1.05.3-1.88.9-2.5.6-.62,1.4-.92,2.41-.92s1.72.28,2.26.83c.54.55.81,1.33.81,2.34s-.3,1.86-.9,2.48c-.6.62-1.4.92-2.39.92ZM749.07,435.67c-.44,0-.76.15-.98.44s-.33.74-.33,1.34c0,.56.11.98.32,1.27.21.28.53.42.96.42s.75-.15.96-.44c.21-.29.32-.73.32-1.32,0-.54-.11-.97-.34-1.27s-.53-.45-.91-.45Z"/>
      </g>
    </g>
    <g>
      <path class="st12" d="M763.88,467.83h-1.34v-2.66h-2.2v.94h-5.11v-5.4h1.34v1.71h2.44v-1.71h1.33v1.14h2.2v-1.83h1.34v7.82ZM759,465.07v-1.65h-2.44v1.65h2.44ZM764.12,470.38h-7.44v-3.33h1.37v2.27h6.08v1.05ZM762.53,464.11v-1.22h-2.2v1.22h2.2Z"/>
      <path class="st12" d="M775.4,469.47h-9.98v-1.04h2.48v-1.81c-.39-.18-.69-.4-.89-.67s-.31-.58-.3-.93c0-.42.14-.78.44-1.08s.72-.53,1.28-.69,1.21-.24,1.97-.24,1.4.08,1.95.24.98.39,1.27.69.45.66.45,1.08c0,.35-.1.66-.3.92-.2.27-.5.49-.88.67v1.82h2.53v1.04ZM774.89,462.47h-9.03v-1.04h3.85v-1.29h1.33v1.29h3.84v1.04ZM768.67,464.26c-.4.17-.6.42-.59.75,0,.33.19.58.59.75.4.17.97.26,1.72.26s1.3-.09,1.7-.26.59-.42.59-.75-.2-.58-.59-.75-.96-.26-1.7-.26-1.32.09-1.72.26ZM771.55,468.42v-1.46c-.34.05-.73.08-1.16.08s-.8-.02-1.15-.07v1.45h2.31Z"/>
      <path class="st12" d="M783.4,464.11c-.25.84-.67,1.63-1.27,2.35-.6.72-1.39,1.36-2.39,1.92l-.77-.9c1.13-.63,1.97-1.37,2.52-2.2.55-.84.88-1.8.98-2.89h-3v-1.04h4.3c0,1.01-.12,1.93-.37,2.78ZM788.43,470.59h-1.29v-5.44h-1.17v4.95h-1.26v-9.82h1.26v3.82h1.17v-4.1h1.29v10.59Z"/>
      <path class="st12" d="M799.7,466.9h-4.34v3.69h-1.33v-3.69h-4.29v-1.08h9.96v1.08ZM795.92,462.18c.32.42.78.78,1.37,1.08s1.26.5,2.01.59l-.53,1.05c-.92-.13-1.73-.41-2.44-.82-.71-.42-1.24-.92-1.6-1.53-.36.6-.89,1.11-1.59,1.53s-1.51.69-2.42.82l-.53-1.05c.75-.09,1.42-.29,2-.59s1.04-.66,1.36-1.08.48-.86.48-1.3v-.54h1.41v.54c0,.45.16.88.49,1.3Z"/>
      <path class="st12" d="M807.5,460.07l-2.09,6.96,1.74-1.56.58-.5c.17-.17.28-.31.35-.43.04-.07.06-.14.06-.21,0-.1-.05-.19-.15-.26s-.35-.12-.74-.14l.08-.28h3.09l-.08.28c-.36.08-.66.18-.89.29-.18.08-.39.22-.65.41-.38.29-.66.51-.83.67l-.33.3.46,2.03c.18.79.31,1.24.4,1.36.06.07.12.11.2.11.18,0,.39-.2.63-.6.04-.05.08-.13.15-.23l.28.17c-.38.69-.81,1.21-1.28,1.57-.32.24-.61.36-.87.36s-.47-.09-.64-.27c-.17-.18-.34-.65-.52-1.41l-.38-1.67-.84.72-.76,2.52h-1.94l2.52-8.31c.11-.35.16-.59.16-.71,0-.11-.03-.21-.08-.28-.05-.07-.12-.12-.21-.16s-.27-.05-.53-.05l.07-.27,2.58-.43h.46Z"/>
    </g>
    <g>
      <path class="st12" d="M26.6,53.89v-.65c-.61-.07-1.1-.25-1.45-.52-.35-.27-.53-.61-.53-1.03,0-.32.11-.6.33-.84s.53-.42.92-.55c.4-.13.86-.19,1.38-.18.53,0,.99.06,1.39.18s.7.31.92.55c.22.24.33.52.33.84,0,.41-.17.75-.52,1.02-.35.27-.82.44-1.43.52v.6c1.01-.04,1.92-.12,2.74-.22l.11.9c-1.04.18-2.1.29-3.2.34s-2.3.08-3.6.08l-.15-1.02c1.02,0,1.93,0,2.75-.03ZM30.39,49.82h-6.27v-.96h2.48v-.93h1.34v.93h2.45v.96ZM32.59,58.61h-1.34v-1.95h-6.03v-1.02h7.37v2.96ZM26.25,51.17c-.24.12-.35.29-.35.52,0,.22.11.39.35.52.24.13.57.19.99.18.42,0,.75-.06.99-.18s.36-.3.36-.52-.12-.4-.36-.52c-.24-.12-.57-.18-1-.17-.43,0-.76.05-.99.17ZM32.59,51.11h1.47v1.08h-1.47v3h-1.34v-7.16h1.34v3.08Z"/>
      <path class="st12" d="M44.6,53.72h-2.54v.73h1.33v2.41h-6.26v.75h6.59v.9h-7.93v-2.5h6.27v-.66h-6.28v-.91h1.39v-.73h-2.55v-.97h9.98v.97ZM43.37,50.62h-6.15v.64h6.34v.9h-7.67v-2.39h6.14v-.64h-6.17v-.89h7.52v2.38ZM40.73,54.45v-.73h-2.24v.73h2.24Z"/>
      <path class="st12" d="M47.79,48.71h1.45c-.29.39-.56.9-.81,1.52s-.46,1.29-.62,2.01-.24,1.41-.24,2.09.08,1.37.24,2.09.36,1.39.62,2.01.53,1.13.81,1.53h-1.45c-.59-.82-1.04-1.69-1.35-2.62-.31-.93-.47-1.93-.47-3,0-2.07.6-3.94,1.81-5.61Z"/>
      <path class="st12" d="M51.42,52.94c-.29-.18-.51-.44-.66-.77-.15-.33-.22-.71-.22-1.15s.08-.81.23-1.14c.15-.33.37-.59.66-.77s.63-.27,1.03-.27.77.09,1.06.27c.29.18.51.44.66.76.15.33.22.71.22,1.14s-.08.82-.23,1.15c-.15.33-.37.59-.66.77s-.64.27-1.04.27-.75-.09-1.04-.27ZM53.07,51.94c.14-.22.21-.53.21-.92s-.07-.69-.2-.91-.34-.33-.61-.33c-.26,0-.46.11-.6.34-.14.22-.21.53-.21.91s.07.69.21.92c.14.22.34.34.6.34s.47-.11.6-.33ZM57.69,49.08h1.22l-6.02,8.48h-1.22l6.02-8.48ZM57.14,57.52c-.29-.18-.51-.44-.66-.77-.15-.33-.22-.71-.22-1.15s.08-.82.23-1.15.37-.59.66-.77.63-.28,1.03-.28.76.09,1.05.27.51.44.66.77.22.71.22,1.15-.08.82-.23,1.15-.37.58-.66.76-.64.27-1.05.27c-.41,0-.75-.08-1.04-.27ZM58.79,56.52c.13-.22.2-.52.2-.91s-.07-.7-.2-.93-.34-.33-.61-.33c-.26,0-.46.11-.6.34-.14.23-.21.53-.21.91s.07.69.21.91c.14.22.34.33.6.33s.47-.11.61-.33Z"/>
      <path class="st12" d="M64.22,57.33c-.31.93-.76,1.8-1.35,2.62h-1.45c.29-.4.56-.91.81-1.53s.46-1.29.62-2.01.24-1.41.24-2.09-.08-1.37-.24-2.09-.36-1.39-.62-2.01-.53-1.13-.81-1.52h1.45c1.21,1.67,1.81,3.54,1.81,5.61,0,1.07-.16,2.08-.47,3Z"/>
    </g>
  </g>
</svg>