<?xml version="1.0" encoding="UTF-8"?>
<svg id="_레이어_1" data-name="레이어_1" xmlns="http://www.w3.org/2000/svg" version="1.1" viewBox="0 0 840 500">
  <!-- Generator: Adobe Illustrator 29.7.1, SVG Export Plug-In . SVG Version: 2.1.1 Build 8)  -->
  <defs>
    <style>
      .st0, .st1, .st2, .st3, .st4, .st5, .st6, .st7 {
        fill: none;
      }

      .st0, .st1, .st3, .st4, .st5, .st6, .st7 {
        stroke-miterlimit: 10;
      }

      .st0, .st4 {
        stroke: #ff005c;
        stroke-width: 1.42px;
      }

      .st8 {
        fill: #fff;
      }

      .st1 {
        stroke: #fff;
        stroke-width: 1.13px;
      }

      .st9 {
        opacity: .4;
      }

      .st10 {
        opacity: .2;
      }

      .st3, .st5, .st6, .st7 {
        stroke: #eaf0ff;
      }

      .st3, .st5, .st7 {
        stroke-width: .71px;
      }

      .st4, .st5 {
        stroke-dasharray: 3.95 2.82;
      }

      .st11 {
        fill: #a8b6d7;
      }

      .st12 {
        fill: #ff005c;
      }

      .st6 {
        stroke-width: 1.7px;
      }

      .st13 {
        fill: #eaf0ff;
      }

      .st7 {
        stroke-dasharray: 3.96 2.83;
      }
    </style>
  </defs>
  <g id="stick">
    <rect class="st11" x="84.68" y="272.3" width="52.8" height="187.98"/>
    <rect class="st11" x="190.29" y="84.32" width="52.8" height="375.96"/>
    <rect class="st11" x="295.9" y="147.05" width="52.8" height="313.23"/>
    <rect class="st11" x="401.5" y="321.09" width="52.8" height="139.19"/>
    <rect class="st11" x="507.11" y="425.43" width="52.8" height="34.85"/>
    <rect class="st11" x="612.72" y="455.63" width="52.8" height="4.65"/>
    <rect class="st11" x="718.33" y="460.07" width="52.8" height=".21"/>
  </g>
  <g id="axes">
    <g>
      <polyline class="st6" points="794.45 461.16 58.28 461.16 58.28 41.81"/>
      <polygon class="st13" points="789.09 456.58 793.66 461.16 789.09 465.73 792.96 465.73 797.53 461.16 792.96 456.58 789.09 456.58"/>
      <polygon class="st13" points="62.84 47.17 58.28 42.6 53.71 47.17 53.71 43.3 58.28 38.73 62.84 43.3 62.84 47.17"/>
    </g>
    <g class="st10">
      <g>
        <line class="st3" x1="58.28" y1="408.35" x2="60.37" y2="408.35"/>
        <line class="st7" x1="63.36" y1="408.35" x2="793.94" y2="408.35"/>
        <line class="st3" x1="795.43" y1="408.35" x2="797.53" y2="408.35"/>
      </g>
      <g>
        <line class="st3" x1="111.08" y1="461.16" x2="111.08" y2="459.07"/>
        <line class="st5" x1="111.08" y1="456.08" x2="111.04" y2="42.32"/>
        <line class="st3" x1="111.04" y1="40.83" x2="111.04" y2="38.73"/>
      </g>
      <g>
        <line class="st3" x1="216.69" y1="461.16" x2="216.69" y2="459.07"/>
        <line class="st5" x1="216.69" y1="456.08" x2="216.65" y2="42.32"/>
        <line class="st3" x1="216.65" y1="40.83" x2="216.65" y2="38.73"/>
      </g>
      <g>
        <line class="st3" x1="322.3" y1="461.16" x2="322.3" y2="459.07"/>
        <line class="st5" x1="322.3" y1="456.08" x2="322.26" y2="42.32"/>
        <line class="st3" x1="322.26" y1="40.83" x2="322.26" y2="38.73"/>
      </g>
      <g>
        <line class="st3" x1="427.91" y1="461.16" x2="427.91" y2="459.07"/>
        <line class="st5" x1="427.91" y1="456.08" x2="427.86" y2="42.32"/>
        <line class="st3" x1="427.86" y1="40.83" x2="427.86" y2="38.73"/>
      </g>
      <g>
        <line class="st3" x1="533.51" y1="461.16" x2="533.51" y2="459.07"/>
        <line class="st5" x1="533.51" y1="456.08" x2="533.47" y2="42.32"/>
        <line class="st3" x1="533.47" y1="40.83" x2="533.47" y2="38.73"/>
      </g>
      <g>
        <line class="st3" x1="639.12" y1="461.16" x2="639.12" y2="459.07"/>
        <line class="st5" x1="639.12" y1="456.08" x2="639.08" y2="42.32"/>
        <line class="st3" x1="639.08" y1="40.83" x2="639.08" y2="38.73"/>
      </g>
      <g>
        <line class="st3" x1="744.73" y1="461.16" x2="744.73" y2="459.07"/>
        <line class="st5" x1="744.73" y1="456.08" x2="744.69" y2="42.32"/>
        <line class="st3" x1="744.69" y1="40.83" x2="744.69" y2="38.73"/>
      </g>
      <g>
        <line class="st3" x1="58.28" y1="355.55" x2="60.37" y2="355.55"/>
        <line class="st7" x1="63.36" y1="355.55" x2="793.94" y2="355.55"/>
        <line class="st3" x1="795.43" y1="355.55" x2="797.53" y2="355.55"/>
      </g>
      <g>
        <line class="st3" x1="58.28" y1="302.74" x2="60.37" y2="302.74"/>
        <line class="st7" x1="63.36" y1="302.74" x2="793.94" y2="302.74"/>
        <line class="st3" x1="795.43" y1="302.74" x2="797.53" y2="302.74"/>
      </g>
      <g>
        <line class="st3" x1="58.28" y1="249.94" x2="60.37" y2="249.94"/>
        <line class="st7" x1="63.36" y1="249.94" x2="793.94" y2="249.94"/>
        <line class="st3" x1="795.43" y1="249.94" x2="797.53" y2="249.94"/>
      </g>
      <g>
        <line class="st3" x1="58.28" y1="197.14" x2="60.37" y2="197.14"/>
        <line class="st7" x1="63.36" y1="197.14" x2="793.94" y2="197.14"/>
        <line class="st3" x1="795.43" y1="197.14" x2="797.53" y2="197.14"/>
      </g>
      <g>
        <line class="st3" x1="58.28" y1="144.33" x2="60.37" y2="144.33"/>
        <line class="st7" x1="63.36" y1="144.33" x2="793.94" y2="144.33"/>
        <line class="st3" x1="795.43" y1="144.33" x2="797.53" y2="144.33"/>
      </g>
      <g>
        <line class="st3" x1="58.28" y1="91.53" x2="60.37" y2="91.53"/>
        <line class="st7" x1="63.36" y1="91.53" x2="793.94" y2="91.53"/>
        <line class="st3" x1="795.43" y1="91.53" x2="797.53" y2="91.53"/>
      </g>
    </g>
  </g>
  <g id="line">
    <g class="st9">
      <path class="st8" d="M483,394.05l5.5,5.43-.95,1.07c-.57.48-.78.06-1.21-.25-.68-.5-5.89-5.69-3.34-6.23h0Z"/>
      <path class="st8" d="M444.77,340.3c.06,1.51,4.88,6.3,2.69,7.2-.99.4-.96-.06-1.34-.63-.67-.96-2.91-4.5-3.16-5.39-.26-1,1.17-1.1,1.81-1.18Z"/>
      <polygon class="st8" points="236.36 81.74 237.96 82.99 232.92 88.41 231.76 86.68 236.36 81.74"/>
      <polygon class="st8" points="357.48 166.5 355.32 166.52 352.68 159.78 354.35 159.78 357.48 166.5"/>
      <polygon class="st8" points="386.28 227.53 384.61 227.54 381.48 220.81 383.64 220.79 386.28 227.53"/>
      <path class="st8" d="M431.39,318.03l-1.86.49c-.59-2.04-2.4-3.9-3.03-5.82-.56-1.7.8-1.81,1.95-.54.43.48,3.13,5.61,2.94,5.87h0Z"/>
      <polygon class="st8" points="155.89 228.06 152.76 234.78 151.1 234.78 153.74 228.03 155.89 228.06"/>
      <path class="st8" d="M245.65,74.46l.26,1.56-5.3,4.63c-.76-.9-1.71-1.11-.7-2.29.62-.73,5.08-4.45,5.73-3.9h0Z"/>
      <path class="st8" d="M297.48,76.52c.95-.79,5.38,3.96,6.23,4.91l-1.18,1.16-5.31-4.5.26-1.56h0Z"/>
      <polygon class="st8" points="393.98 248.2 391.12 241.75 392.76 240.47 395.88 247.43 393.98 248.2"/>
      <polygon class="st8" points="371.88 197.02 370.21 197.02 367.08 190.3 369.23 190.28 371.88 197.02"/>
      <polygon class="st8" points="170.29 197.54 167.16 204.27 165.49 204.27 168.13 197.52 170.29 197.54"/>
      <polygon class="st8" points="374.78 207.35 371.92 200.89 373.56 199.61 376.68 206.58 374.78 207.35"/>
      <polygon class="st8" points="426.11 308.2 424.25 308.69 421.05 301.98 422.74 300.96 426.11 308.2"/>
      <path class="st8" d="M570.08,448.39l.02,2.04c-2.45-.05-4.73-1.23-7.14-1.61l-.05-2.01,7.17,1.58h0Z"/>
      <path class="st8" d="M126.13,288.55c0,2.77-2.33,4.65-2.89,7.23l-1.9-.52,3.14-6.73h1.67-.01Z"/>
      <path class="st8" d="M206.29,124.1c-.73-.95,3.26-5.81,3.37-7.24l1.69,1.02-3.62,6.51-1.44-.29h0Z"/>
      <path class="st8" d="M131.41,278.74l-3.14,6.73h-1.67c0-2.78,2.33-4.65,2.89-7.24l1.9.52h.01Z"/>
      <polygon class="st8" points="203.9 126.69 205.72 127.97 201.73 134.44 200.6 132.73 203.9 126.69"/>
      <path class="st8" d="M530.27,434.38c-2.58.03-4.21-2.69-6.72-3.12l.49-2.05,6.24,3.38v1.8h-.01Z"/>
      <path class="st8" d="M490.67,401.82l5.51,5.42-.95,1.07c-1.23.7-4.3-4.22-5.73-4.67l1.17-1.81h0Z"/>
      <polygon class="st8" points="478.97 392.43 474.61 387.07 475.86 385.83 480.83 391.21 480.11 392.5 478.97 392.43"/>
      <path class="st8" d="M460.68,365.6l-1.62.43c-.41-.07-5.78-6.41-2.95-7.14l4.56,6.71Z"/>
      <polygon class="st8" points="184.69 163.4 188.06 156.16 189.75 157.19 186.85 163.43 186.31 163.86 184.69 163.4"/>
      <polygon class="st8" points="275.4 67.22 268.21 66.7 268.21 64.63 275.2 65.12 275.4 67.22"/>
      <path class="st8" d="M462.39,368.21c.9-.23,3.44,4.83,4.49,5.48l-1.16,1.73-4.54-5.94,1.21-1.28h0Z"/>
      <polygon class="st8" points="469.07 377 473.6 382.49 472.43 384.22 468.07 378.56 469.07 377"/>
      <path class="st8" d="M254.76,68.77l.26,1.56-5.8,3.52-1.19-1.2c-.29-.78,1.82-1.72,2.39-2.07.62-.39,3.82-2.26,4.33-1.8h.01Z"/>
      <path class="st8" d="M295.06,73.45l-.22,1.53c-.45.7-.61.5-1.24.3-1.31-.41-3.47-2.86-5.05-3.4l.29-2.07s6.22,3.64,6.22,3.64Z"/>
      <path class="st8" d="M145.81,248.22c.39.51-2.49,7.5-3.59,7.23-2.05-.48,1.66-6.41,2.14-7.53l1.45.29h0Z"/>
      <path class="st8" d="M498.11,409.57c.56-.48,5.27,4.41,6.23,4.91l-1.26,1.25-.63-.19-4.6-3.91.27-2.06h-.01Z"/>
      <polygon class="st8" points="540.36 437.5 539.2 439.52 533.61 436.71 533.21 436.14 533.63 434.4 540.36 437.5"/>
      <path class="st8" d="M549.95,441.64c.35.41-.15,2.22-1.17,2.07l-5.55-2.33c-.84-.26-.01-2.41.24-2.31.76,1.23,6.25,2.31,6.48,2.59h0Z"/>
      <path class="st8" d="M319.81,101.35c1.09-.25,3.53,4.71,4.51,5.5l-1.16,1.72c-.63-.94-5.8-6.66-3.35-7.22h0Z"/>
      <polygon class="st8" points="328.69 117.89 324.84 111.18 326.46 110.75 330.38 116.36 328.69 117.89"/>
      <path class="st8" d="M331.09,120.49l1.45-.29c.44.22,3.13,4.84,3.43,5.64.62,1.61-.76,1.84-1.94.53-.54-.6-3.29-5.45-2.94-5.88Z"/>
      <path class="st8" d="M184.69,167.03l-3.14,6.73c-.16.65-1.62.06-1.67,0-.72-.97,3.01-5.65,2.89-7.23l1.9.52h.01Z"/>
      <path class="st8" d="M364.19,179.44l2.88,7.23-1.69.06-2.9-5.72c-.22-.77,1.24-1.94,1.71-1.57Z"/>
      <path class="st8" d="M170.29,193.92c-.39-.51,2.49-7.5,3.59-7.23,2.05.48-1.66,6.41-2.14,7.53l-1.45-.29h0Z"/>
      <path class="st8" d="M160.21,217.71c.39.51-2.49,7.5-3.59,7.23-2.05-.48,1.66-6.41,2.14-7.53l1.45.29h0Z"/>
      <path class="st8" d="M389.18,237.86c-.39-2.09-1.87-3.92-2.5-5.85-.19-.58-.53-1.16.34-1.37,1.96-.48,3.02,4.73,4,6.03l-1.84,1.18h0Z"/>
      <polygon class="st8" points="580.67 450.94 579.92 453.05 572.97 451.14 573.48 449.38 580.67 450.94"/>
      <path class="st8" d="M410.76,278.2l-1.9.52c-.56-2.59-2.89-4.47-2.89-7.23h1.67l3.14,6.72h-.01Z"/>
      <path class="st8" d="M412.66,281.34c-.05,1.51,4.26,6.37,2.18,7.21-1.08.44-.95-.02-1.32-.65-.97-1.7-1.54-3.76-2.7-5.36l1.85-1.2h0Z"/>
      <path class="st8" d="M418.92,298.9c-.22-2.26-2.33-4.02-2.8-6.06-.36-1.55.17-.94,1.12-1.66l3.45,6.44-1.77,1.29h0Z"/>
      <path class="st8" d="M116.06,308.73c.19.26-2.53,5.3-2.95,5.87-1,1.4-2.49,1.12-1.94-.54.63-1.92,2.44-3.79,3.03-5.82l1.86.49h0Z"/>
      <polygon class="st8" points="450.58 349.58 454.44 356.3 452.82 356.72 448.89 351.12 450.58 349.58"/>
      <polygon class="st8" points="264.85 65.15 264.82 67.19 258.16 68.75 257.65 66.7 264.85 65.15"/>
      <polygon class="st8" points="285.48 70.31 278.83 67.66 278.77 65.67 285.49 67.99 285.92 68.57 285.48 70.31"/>
      <path class="st8" d="M229.1,89.98l1.19.78c.18.91-4.07,6.03-4.53,5.91l-1.23-1.28,4.56-5.43h0Z"/>
      <polygon class="st8" points="318.12 98.76 316.21 99.06 312.36 93.35 313.81 92.81 318.12 98.76"/>
      <path class="st8" d="M506.99,416.94c1,.57,5.73,3.68,5.52,4.77-.52,2.63-5.84-2.94-6.71-3.61l1.18-1.16h0Z"/>
      <polygon class="st8" points="438.35 330.46 442.24 336.62 441.23 338.19 437.35 332.02 438.35 330.46"/>
      <path class="st8" d="M359.38,169.63c.26,2.1,1.95,3.95,2.67,5.67.53,1.28-.9,2.4-1.81.89-1-1.69-1.84-3.58-2.69-5.38l1.84-1.18h-.01Z"/>
      <path class="st8" d="M397.78,250.81c.56,2.59,2.9,4.49,2.89,7.23l-1.2.49-3.59-6.96,1.89-.76h.01Z"/>
      <path class="st8" d="M138.13,265.8l-1.86-1.28c.83-.98,2.93-6.73,4.02-6.47,2.39.56-2.46,6.34-2.16,7.75Z"/>
      <path class="st8" d="M194.77,146.86c.39.53-2.53,6-3.15,6.73-.68.8-.83-.12-1.66,0l3.15-6.73h1.66Z"/>
      <polygon class="st8" points="200.05 137.03 196.45 144.26 195.33 142.9 198.61 136.74 200.05 137.03"/>
      <polygon class="st8" points="405.96 267.86 404.04 268.9 400.68 261.67 402.59 261.37 405.96 267.86"/>
      <path class="st8" d="M116.06,305.1c1.02-1.62,1.92-4.44,2.94-5.88s2.5-1.12,1.95.54c-.26.8-2.94,5.71-3.27,5.8l-1.62-.45Z"/>
      <path class="st8" d="M213.91,114.73l-1.14.05c-.41-.4-.73-.53-.67-1.21.03-.37,3.69-6.02,4.02-6.01l1,1.56-3.22,5.6h0Z"/>
      <path class="st8" d="M339.75,137.01c-.01-2.43-3.97-5.15-2.18-7.22,1.24-.27,3.37,4.94,4,6.04l-1.84,1.18h.01Z"/>
      <path class="st8" d="M643.55,458.18v2.06c-1.17-.11-6.94.45-7.22-.84l.02-1.74,7.19.52h.01Z"/>
      <path class="st8" d="M217.81,104.96c-.23-.29,3.8-5.67,4.31-5.96.84-.46.92-.08,1.45.54-.69,1.51-3.99,7.58-5.77,5.41h.01Z"/>
      <path class="st8" d="M136.21,268.38c.02,2.77-2.49,4.54-2.89,7.23l-1.9-.52,3.14-6.73h1.67-.01Z"/>
      <path class="st8" d="M177.98,176.33l1.87,1.28c-.71.98-2.9,6.73-4.02,6.47-.74-.62-.74-.64-.52-1.57.42-1.82,2.48-4.09,2.68-6.19h-.01Z"/>
      <path class="st8" d="M436.67,327.86c-.05.07-1.44.57-1.69.06-.77-1.83-4.66-5.94-1.9-7.3.23,1.45,4.3,6.26,3.59,7.23Z"/>
      <path class="st8" d="M344.02,139.63c-.25,1.35,4.36,6.73,2.18,7.22-2.13-.87-2.6-4.19-4.01-6.02l1.85-1.2h-.01Z"/>
      <path class="st8" d="M521.63,427.16l-1.19,2.05-6-4.38.78-1.34c1.52-.31,4.55,3.5,6.42,3.68h-.01Z"/>
      <path class="st8" d="M590.74,453.02c-.15.78.59,2.19-.68,2.03-2.14-.26-4.32-1.03-6.51-1.02v-2.05l7.18,1.05Z"/>
      <path class="st8" d="M601.3,454.57v2.06c-.29.32-6.15-.9-7.14-1.09l-.05-2.01,7.2,1.03h-.01Z"/>
      <polygon class="st8" points="632.99 457.66 632.99 459.73 625.78 459.21 625.78 457.14 632.99 457.66"/>
      <polygon class="st8" points="350.31 156.67 347.4 149.96 349.09 149.9 352.17 155.44 350.31 156.67"/>
      <path class="st8" d="M149.18,237.35l1.86,1.28c-.83.99-2.91,6.73-4.02,6.47-.74-.62-.74-.64-.52-1.57.42-1.82,2.48-4.09,2.68-6.19h0Z"/>
      <path class="st8" d="M552.83,445.24l.71-2.05c.93.99,6.8,1.71,6.48,3.34-.39,2.02-6.02-1.35-7.19-1.29Z"/>
      <path class="st8" d="M611.86,456.12v1.54c-2.42.16-4.79-.07-7.17-.55l-.03-2.03,7.19,1.05h.01Z"/>
      <path class="st8" d="M306.36,83.78c.45,0,3.33,4.67,4.33,5.15.16,4.09-4.88-2.56-5.49-3.8l1.16-1.35Z"/>
      <path class="st8" d="M377.22,210.54l1.37-.59c.2,2.1,2.26,4.37,2.68,6.19.21.93.22.95-.52,1.57-.89.2-4.23-6.23-3.54-7.17h0Z"/>
      <path class="st8" d="M164.99,207.4c.4.54-2.48,7.46-3.57,7.2-2.24-.52,2.39-6.24,2.16-7.75l1.4.56h0Z"/>
      <path class="st8" d="M622.43,457.15v1.54c-1.15-.1-6.85.41-7.2-.77l.29-1.3,6.92.54h0Z"/>
      <path class="st8" d="M646.91,460.25l.24-2.08c2.22.93,4.64.4,6.96.53v1.55h-7.2Z"/>
      <path class="st8" d="M657.47,460.25v-1.55c2.09.04,4.11-.24,6.16.37.86.25,1.24-.17,1.03,1.18h-7.2.01Z"/>
      <rect class="st8" x="668.02" y="459.21" width="7.2" height="1.03"/>
      <rect class="st8" x="678.58" y="459.21" width="7.2" height="1.03"/>
      <rect class="st8" x="689.1" y="459.21" width="7.2" height="1.03"/>
      <rect class="st8" x="699.45" y="459.21" width="7.2" height="1.03"/>
      <rect class="st8" x="710.01" y="459.21" width="7.2" height="1.03"/>
      <rect class="st8" x="720.51" y="459.21" width="7.2" height="1.03"/>
      <rect class="st8" x="731.25" y="459.21" width="7.2" height="1.03"/>
      <rect class="st8" x="741.82" y="459.21" width="7.2" height="1.03"/>
    </g>
    <g>
      <line class="st0" x1="269.52" y1="461.16" x2="269.52" y2="459.07"/>
      <line class="st4" x1="269.52" y1="456.08" x2="269.47" y2="42.32"/>
      <line class="st0" x1="269.47" y1="40.83" x2="269.47" y2="38.73"/>
    </g>
    <g>
      <path class="st12" d="M239.62,19.53l-1.32,4.62h.4c1.07,0,1.84-.14,2.32-.42.49-.29.9-.78,1.24-1.49h.33l-1.33,4.63h-.31c.05-.31.07-.56.07-.75,0-.32-.1-.58-.29-.79-.19-.2-.43-.35-.74-.44-.2-.05-.61-.08-1.24-.08h-.69l-1.14,3.99c-.1.35-.15.61-.15.78,0,.14.06.24.19.33.19.12.54.18,1.06.18,1,0,1.94-.21,2.82-.63s1.68-1.07,2.38-1.92h.36l-1.24,3.26h-10.17l.11-.33c.59,0,1.03-.12,1.31-.34s.53-.72.75-1.49l2.24-7.66c.13-.42.18-.76.18-1,0-.22-.07-.39-.23-.52s-.52-.2-1.08-.24l.1-.33h9.47l-.76,2.97h-.32c-.02-.58-.12-.99-.27-1.24-.24-.37-.57-.64-.98-.82-.4-.17-1.07-.25-1.97-.25h-1.11.01Z"/>
      <path class="st12" d="M250.97,33.61h-3.62v-15.43h3.62v1.36h-1.89v12.69h1.89v1.36h0Z"/>
      <path class="st12" d="M262.13,30.75h-5.14l.1-.33c.34-.03.59-.13.75-.3s.24-.37.24-.61c0-.26-.1-.69-.27-1.26l-1.27-4.04-1.26,4.34c-.14.49-.21.83-.21,1.06,0,.24.1.44.29.59.19.15.54.22,1.05.23l-.1.33h-5.78l.1-.33c.46-.01.8-.07,1.03-.18s.41-.29.54-.52c.14-.23.3-.69.49-1.34l2-6.92c.23-.79.34-1.3.34-1.52,0-.2-.1-.37-.27-.52s-.54-.22-1.05-.24l.1-.33h5.6l-.1.33c-.37,0-.67.05-.86.17-.26.15-.48.37-.64.67-.11.19-.26.64-.45,1.34l-.8,2.84,3.09-2.84c.6-.56.94-.89,1-1,.1-.15.14-.31.14-.46,0-.18-.06-.33-.19-.45s-.35-.21-.65-.25l.1-.33h4.48l-.1.33c-.35.03-.62.08-.84.15-.29.1-.61.25-.98.48s-.74.49-1.12.79l-.81.75-1.88,1.69,1.4,4.38c.45,1.45.81,2.29,1.06,2.56s.58.4.98.43l-.1.33h.02Z"/>
      <path class="st12" d="M268.68,33.61h-3.63v-1.36h1.9v-12.69h-1.9v-1.36h3.63v15.43h0Z"/>
      <path class="st12" d="M281.11,24.62h-8.53v-1.8h8.53v1.8ZM281.11,28.42h-8.53v-1.77h8.53v1.77Z"/>
      <path class="st12" d="M289.14,30.75h-2.76v-9.59c-.32.22-.68.4-1.07.55s-.81.31-1.28.44l-.75-2.21c.8-.23,1.55-.53,2.27-.88s1.35-.74,1.91-1.17h1.68v12.85h-.01Z"/>
      <path class="st12" d="M293.44,30.97c-.48,0-.87-.14-1.17-.42-.31-.29-.46-.64-.46-1.09s.16-.8.46-1.08c.31-.29.7-.42,1.17-.42s.87.14,1.17.42c.31.29.46.64.46,1.08s-.15.8-.45,1.09-.7.42-1.17.42h-.01Z"/>
      <path class="st12" d="M296.73,29.66l1.28-1.69c.4.31.81.53,1.24.67s.84.21,1.27.21c.63,0,1.13-.18,1.48-.52s.53-.79.53-1.34c0-.68-.22-1.17-.67-1.48s-1.11-.46-1.99-.46c-.32,0-.67.01-1.05.04-.38.02-.77.06-1.19.11l.48-7.01h6.65v2.26h-4.54l-.18,2.51c.23-.02.44-.03.63-.04.19,0,.37-.01.54-.01,1.29,0,2.3.34,3.03,1.01s1.1,1.62,1.1,2.82-.41,2.23-1.25,3.03-1.97,1.2-3.44,1.2c-.75,0-1.44-.11-2.06-.32s-1.24-.54-1.84-.99h-.02Z"/>
    </g>
    <g class="st9">
      <path class="st8" d="M412.67,201.64l3.55,7.56,1.59-5.48c.08-.31.13-.57.13-.8,0-.27-.08-.51-.26-.67-.18-.17-.48-.26-.91-.3l.1-.31h3.6l-.08.31c-.45.03-.83.16-1.13.38-.3.23-.55.69-.76,1.38l-2.77,9.39h-.32l-4.55-9.66-2.2,7.54c-.07.26-.11.5-.11.71,0,.31.1.54.3.73s.52.27.95.27l-.07.31h-3.7l.07-.31c.32,0,.54-.03.68-.08.23-.08.46-.26.69-.52s.4-.62.54-1.1l2.4-8.24c-.3-.33-.54-.54-.74-.63-.2-.1-.51-.15-.91-.15l.1-.31h3.83v-.03Z"/>
      <path class="st8" d="M424.57,200.35h1.27c-.38.56-.75,1.28-1.08,2.16-.34.89-.6,1.84-.8,2.87-.2,1.02-.31,2.02-.31,2.98s.11,1.95.31,2.99.48,1.99.8,2.87c.34.89.7,1.61,1.08,2.16h-1.27c-.78-1.14-1.38-2.38-1.78-3.71s-.61-2.77-.62-4.32c.02-3.04.82-5.71,2.41-8.02h0Z"/>
      <path class="st8" d="M431.3,205.46h2.15l-1.58,5.52c-.07.25-.11.43-.11.53,0,.14.08.21.26.21.38,0,.82-.29,1.33-.87.51-.57.98-1.28,1.4-2.12l.95-3.27h2.1l-1.61,5.54c-.13.43-.19.71-.19.81,0,.13.06.19.18.19.21,0,.55-.36,1.02-1.08l.29.2c-.77,1.38-1.63,2.08-2.57,2.08-.32,0-.58-.08-.79-.25s-.32-.4-.32-.71.07-.69.21-1.14l.24-.78c-1.26,1.92-2.38,2.87-3.37,2.87-.38,0-.65-.13-.8-.37-.19.87-.31,1.67-.36,2.41-.03.42-.06.7-.1.84-.04.15-.14.27-.29.4-.16.12-.35.18-.57.18-.27,0-.5-.08-.69-.24-.18-.17-.27-.36-.27-.57,0-.24.18-.71.53-1.37.53-.99.98-2.18,1.38-3.56l1.56-5.47h-.02Z"/>
      <path class="st8" d="M442.5,205.42h9.15v1.09h-9.15v-1.09ZM442.5,208.15h9.15v1.09h-9.15v-1.09Z"/>
      <path class="st8" d="M460.82,212.98h-1.99v-9.72c-.25.19-.61.38-1.07.58-.45.2-.89.36-1.31.49l-.55-1.65c.71-.19,1.4-.48,2.11-.82.71-.36,1.29-.74,1.75-1.14h1.05v12.26h0Z"/>
      <path class="st8" d="M465.02,213.17c-.35,0-.64-.12-.89-.34s-.36-.51-.36-.84.12-.62.36-.86.54-.34.89-.34.67.12.9.34.36.51.36.84-.12.62-.36.84-.54.34-.9.34h0Z"/>
      <path class="st8" d="M468.11,211.96l.97-1.27c.4.32.81.55,1.23.7.42.15.86.22,1.32.22.7,0,1.26-.2,1.68-.61s.63-.94.63-1.58c0-.72-.24-1.27-.72-1.64-.48-.37-1.17-.56-2.09-.56-.32,0-.65.01-1.02.03s-.72.05-1.07.11l.43-6.35h5.92v1.68h-4.34l-.2,2.98c.19-.01.39-.02.58-.03s.37-.01.53-.01c1.25,0,2.23.33,2.94.97s1.06,1.53,1.06,2.66-.39,2.11-1.16,2.85c-.78.74-1.81,1.1-3.09,1.1-.7,0-1.33-.1-1.91-.3s-1.14-.51-1.67-.93v-.02Z"/>
      <path class="st8" d="M478.77,215.98v-.37c.64-.27,1.12-.64,1.4-1.09.3-.44.44-.9.44-1.36,0-.1-.02-.17-.06-.22-.04-.04-.07-.06-.12-.06-.03,0-.08.02-.15.06-.16.1-.36.14-.6.14-.33,0-.61-.13-.86-.38s-.36-.56-.36-.91c0-.37.14-.69.42-.97.27-.27.61-.42,1.01-.42.48,0,.89.19,1.23.56s.51.88.51,1.53c0,.79-.24,1.51-.73,2.12s-1.19,1.08-2.14,1.36h0Z"/>
      <path class="st8" d="M497.85,205.46l-.52,1.81h-2.86c.93.82,1.38,1.61,1.38,2.37,0,.91-.39,1.73-1.18,2.47-.78.74-1.76,1.11-2.94,1.11-.96,0-1.7-.3-2.22-.89s-.78-1.33-.78-2.22.31-1.74.91-2.55,1.28-1.35,2.04-1.65c.76-.31,1.78-.45,3.07-.45h3.09ZM494.02,207.26c-.68,0-1.25.13-1.7.38s-.88.73-1.25,1.44c-.38.71-.57,1.44-.57,2.19,0,.46.1.82.29,1.07.19.25.44.38.76.38.63,0,1.24-.54,1.78-1.63s.83-2.09.83-3.01c0-.24-.05-.52-.15-.82h0Z"/>
      <path class="st8" d="M503.72,202.86c0,.58-.43,1.27-1.29,2.05-.26.24-.93.76-1.99,1.55h1.1c.36,0,.61-.03.75-.08.18-.07.35-.25.51-.53h.43l-.83,1.7h-3.73v-.22c1.69-1.35,2.77-2.36,3.21-2.99.22-.32.34-.65.34-1.02,0-.56-.3-.84-.9-.84-.42,0-.8.22-1.13.68l-.34-.14c.41-.99,1.11-1.49,2.1-1.49.44,0,.83.11,1.17.33.39.25.58.59.58,1.01h.01Z"/>
      <path class="st8" d="M507.7,205.42h9.15v1.09h-9.15v-1.09ZM507.7,208.15h9.15v1.09h-9.15v-1.09Z"/>
      <path class="st8" d="M526.03,212.98h-1.99v-9.72c-.25.19-.61.38-1.07.58s-.89.36-1.31.49l-.55-1.65c.71-.19,1.4-.48,2.11-.82.71-.36,1.29-.74,1.75-1.14h1.05v12.26h0Z"/>
      <path class="st8" d="M530.22,213.17c-.35,0-.64-.12-.89-.34-.24-.22-.36-.51-.36-.84s.12-.62.36-.86c.24-.23.54-.34.89-.34s.67.12.9.34.36.51.36.84-.12.62-.36.84-.54.34-.9.34h0Z"/>
      <path class="st8" d="M537.53,212.98h-1.99v-9.72c-.25.19-.61.38-1.07.58s-.89.36-1.31.49l-.55-1.65c.71-.19,1.4-.48,2.11-.82.71-.36,1.29-.74,1.75-1.14h1.05v12.26h0Z"/>
      <path class="st8" d="M540.66,212.98v-.75c0-.56.08-1.06.24-1.5.16-.44.38-.84.67-1.2.27-.37.61-.72,1.01-1.05.39-.33.83-.65,1.31-1,.39-.27.72-.54,1-.79.27-.25.51-.51.69-.76.18-.23.32-.49.41-.76.08-.27.14-.58.14-.91,0-.54-.16-.98-.49-1.33-.32-.35-.77-.52-1.36-.52-.44,0-.9.1-1.38.3s-.93.5-1.36.9l-1.09-1.2c.59-.55,1.21-.96,1.88-1.23s1.39-.39,2.2-.39c1.14,0,2.03.32,2.65.96.63.64.95,1.4.95,2.27,0,.57-.07,1.07-.22,1.48s-.34.78-.58,1.12c-.25.35-.56.68-.9.98-.35.31-.73.61-1.14.9-.42.3-.78.56-1.09.79-.31.23-.56.45-.76.67-.2.22-.35.43-.45.64s-.15.43-.15.68h5.53v1.7h-7.71Z"/>
      <path class="st8" d="M550.17,211.96l.97-1.27c.4.32.81.55,1.23.7.42.15.86.22,1.32.22.7,0,1.26-.2,1.68-.61s.63-.94.63-1.58c0-.72-.24-1.27-.72-1.64s-1.17-.56-2.09-.56c-.32,0-.65.01-1.02.03s-.72.05-1.07.11l.43-6.35h5.92v1.68h-4.34l-.2,2.98c.19-.01.39-.02.58-.03.19,0,.37-.01.52-.01,1.25,0,2.23.33,2.94.97.71.64,1.06,1.53,1.06,2.66s-.39,2.11-1.17,2.85-1.81,1.1-3.09,1.1c-.7,0-1.33-.1-1.91-.3s-1.14-.51-1.67-.93v-.02Z"/>
      <path class="st8" d="M562.64,212.68c-.4,1.33-1,2.57-1.78,3.71h-1.27c.38-.56.75-1.28,1.08-2.16.34-.89.6-1.85.8-2.87.2-1.03.31-2.03.31-2.99s-.11-1.95-.31-2.98-.48-1.99-.8-2.87c-.34-.89-.7-1.61-1.08-2.16h1.27c1.58,2.3,2.39,4.96,2.41,8.02,0,1.55-.21,3-.62,4.32h0Z"/>
    </g>
    <g class="st9">
      <line class="st2" x1="380.48" y1="207.25" x2="404.86" y2="207.25"/>
      <g>
        <line class="st1" x1="381.78" y1="207.25" x2="404.86" y2="207.25"/>
        <polygon class="st8" points="385.75 212.15 386.56 211.28 382.24 207.25 386.56 203.24 385.75 202.35 380.48 207.25 385.75 212.15"/>
      </g>
    </g>
  </g>
  <g id="Num.">
    <path class="st13" d="M110.72,484.2c-1.21,0-2.13-.48-2.75-1.42s-.92-2.31-.92-4.12c0-1.93.33-3.4.98-4.41s1.59-1.52,2.81-1.52c1.28,0,2.21.48,2.79,1.42.58.94.88,2.37.88,4.26s-.33,3.31-.97,4.31c-.65,1-1.58,1.5-2.82,1.5h0ZM110.82,474.16c-.65,0-1.15.37-1.46,1.11-.32.74-.46,1.85-.46,3.33,0,1.38.16,2.43.46,3.13s.79,1.03,1.44,1.03,1.14-.35,1.44-1.07c.3-.71.44-1.77.44-3.2s-.15-2.52-.44-3.25c-.3-.73-.77-1.09-1.42-1.09h0Z"/>
    <path class="st13" d="M40.51,410.54l1.46-.79c.22.44.5.79.86,1.03s.79.36,1.33.36c.58,0,1.05-.18,1.4-.54.35-.36.53-.86.53-1.49,0-.7-.24-1.21-.72-1.55-.49-.34-1.13-.51-1.93-.51-.3,0-.62.01-.99.03s-.71.05-1.02.08l.39-5.85h5.5v1.53h-4.06l-.19,2.77c.17,0,.35-.02.52-.03.18,0,.36-.01.54-.01,1.21,0,2.14.32,2.8.94.65.62.98,1.44.98,2.43,0,1.1-.35,1.99-1.05,2.65-.7.68-1.61,1-2.74,1-.86,0-1.58-.18-2.2-.54s-1.08-.87-1.42-1.53h0Z"/>
    <g>
      <path class="st13" d="M38.14,359.61h-1.8v-9.06c-.33.22-.7.42-1.09.59-.39.18-.79.33-1.19.44l-.46-1.48c.62-.18,1.23-.42,1.84-.75.6-.32,1.12-.69,1.56-1.1h1.14v11.34h0Z"/>
      <path class="st13" d="M44.16,359.82c-1.21,0-2.13-.48-2.75-1.42s-.92-2.31-.92-4.12c0-1.93.33-3.4.98-4.41s1.59-1.52,2.81-1.52c1.28,0,2.21.48,2.79,1.42.58.94.88,2.37.88,4.26s-.33,3.31-.97,4.31c-.65,1-1.58,1.5-2.82,1.5h0ZM44.26,349.77c-.65,0-1.15.37-1.46,1.11-.32.74-.46,1.85-.46,3.33,0,1.38.16,2.43.46,3.13.31.7.79,1.03,1.44,1.03s1.14-.35,1.44-1.07c.3-.71.44-1.77.44-3.2s-.15-2.52-.44-3.25c-.3-.73-.77-1.09-1.42-1.09h0Z"/>
    </g>
    <g>
      <path class="st13" d="M38.14,306.81h-1.8v-9.06c-.33.22-.7.42-1.09.59-.39.18-.79.33-1.19.44l-.46-1.48c.62-.18,1.23-.42,1.84-.75.6-.32,1.12-.69,1.56-1.1h1.14v11.34h0Z"/>
      <path class="st13" d="M40.51,304.93l1.46-.79c.22.44.5.79.86,1.03s.79.36,1.33.36c.58,0,1.05-.18,1.4-.54.35-.36.53-.86.53-1.49,0-.7-.24-1.21-.72-1.55-.49-.34-1.13-.51-1.93-.51-.3,0-.62.01-.99.03s-.71.05-1.02.08l.39-5.85h5.5v1.53h-4.06l-.19,2.77c.17,0,.35-.02.52-.03.18,0,.36-.01.54-.01,1.21,0,2.14.32,2.8.94.65.62.98,1.44.98,2.43,0,1.1-.35,1.99-1.05,2.65-.7.68-1.61,1-2.74,1-.86,0-1.58-.18-2.2-.54s-1.08-.87-1.42-1.53h0Z"/>
    </g>
    <g>
      <path class="st13" d="M31.98,254.01v-.68c0-.52.07-.97.22-1.37s.35-.77.6-1.11c.26-.34.58-.67.94-.96.37-.31.77-.61,1.21-.94.37-.26.68-.52.94-.75.26-.24.48-.48.63-.72s.29-.49.37-.74c.08-.25.13-.52.13-.79,0-.56-.16-.98-.46-1.27s-.71-.43-1.19-.43-.93.14-1.27.42c-.35.29-.63.69-.88,1.2l-1.47-.63c.38-.79.88-1.4,1.5-1.84.62-.43,1.38-.65,2.28-.65.96,0,1.75.27,2.38.82s.93,1.33.93,2.33c0,.41-.06.8-.19,1.17s-.31.72-.53,1.05c-.23.33-.5.63-.8.93-.31.3-.65.58-1.06.87-.38.29-.72.53-1,.74s-.53.41-.71.61c-.19.21-.32.4-.39.59s-.12.4-.12.62h5.04v1.54h-7.1v-.02Z"/>
      <path class="st13" d="M44.16,254.21c-1.21,0-2.13-.48-2.75-1.42s-.92-2.31-.92-4.12c0-1.93.33-3.4.98-4.41.65-1.01,1.59-1.52,2.81-1.52,1.28,0,2.21.48,2.79,1.42s.88,2.37.88,4.26-.33,3.31-.97,4.31c-.65,1-1.58,1.5-2.82,1.5h0ZM44.26,244.16c-.65,0-1.15.37-1.46,1.11-.32.74-.46,1.85-.46,3.33,0,1.38.16,2.43.46,3.12.31.7.79,1.03,1.44,1.03s1.14-.35,1.44-1.07c.3-.71.44-1.77.44-3.2s-.15-2.52-.44-3.25-.77-1.09-1.42-1.09v.02Z"/>
    </g>
    <g>
      <path class="st13" d="M31.98,201.2v-.68c0-.52.07-.97.22-1.37s.35-.77.6-1.11c.26-.34.58-.67.94-.96.37-.31.77-.61,1.21-.94.37-.26.68-.52.94-.75.26-.24.48-.48.63-.72s.29-.49.37-.74c.08-.25.13-.52.13-.79,0-.56-.16-.98-.46-1.27s-.71-.43-1.19-.43-.93.14-1.27.42c-.35.29-.63.69-.88,1.2l-1.47-.63c.38-.79.88-1.4,1.5-1.84.62-.43,1.38-.65,2.28-.65.96,0,1.75.27,2.38.82s.93,1.33.93,2.33c0,.41-.06.8-.19,1.17s-.31.72-.53,1.05c-.23.33-.5.63-.8.93-.31.3-.65.58-1.06.87-.38.29-.72.53-1,.74s-.53.41-.71.61c-.19.21-.32.4-.39.59s-.12.4-.12.62h5.04v1.54h-7.1v-.02Z"/>
      <path class="st13" d="M40.51,199.32l1.46-.79c.22.44.5.79.86,1.03s.79.36,1.33.36c.58,0,1.05-.18,1.4-.54.35-.36.53-.86.53-1.49,0-.7-.24-1.21-.72-1.55-.49-.34-1.13-.51-1.93-.51-.3,0-.62.01-.99.03s-.71.05-1.02.08l.39-5.85h5.5v1.53h-4.06l-.19,2.77c.17,0,.35-.02.52-.03.18,0,.36-.01.54-.01,1.21,0,2.14.32,2.8.94.65.62.98,1.44.98,2.43,0,1.1-.35,1.99-1.05,2.65-.7.68-1.61,1-2.74,1-.86,0-1.58-.18-2.2-.54s-1.08-.87-1.42-1.53h0Z"/>
    </g>
    <g>
      <path class="st13" d="M31.72,146.56l1.44-.79c.19.43.46.76.82,1,.36.23.8.35,1.34.35.59,0,1.08-.16,1.44-.46.37-.31.55-.76.55-1.34,0-.62-.24-1.09-.72-1.4s-1.17-.48-2.08-.48h-.88v-1.46h.82c.82,0,1.45-.15,1.86-.44s.62-.74.62-1.33c0-.53-.16-.93-.46-1.19-.31-.27-.68-.4-1.11-.4s-.78.11-1.11.32c-.33.21-.61.56-.83,1.02l-1.4-.65c.35-.7.82-1.24,1.42-1.61s1.29-.55,2.1-.55c.99,0,1.78.25,2.38.75s.89,1.19.89,2.08c0,.59-.16,1.12-.46,1.57-.31.45-.78.81-1.44,1.07v.03c.67.13,1.21.41,1.64.88.42.46.63,1.07.63,1.82,0,.97-.35,1.76-1.03,2.37-.69.61-1.61.91-2.76.91-.83,0-1.56-.17-2.2-.51s-1.11-.86-1.45-1.53h-.01Z"/>
      <path class="st13" d="M44.16,148.6c-1.21,0-2.13-.48-2.75-1.42s-.92-2.31-.92-4.12c0-1.93.33-3.4.98-4.41.65-1.01,1.59-1.52,2.81-1.52,1.28,0,2.21.48,2.79,1.42s.88,2.37.88,4.26-.33,3.31-.97,4.31c-.65,1-1.58,1.5-2.82,1.5h0ZM44.26,138.56c-.65,0-1.15.37-1.46,1.11-.32.74-.46,1.85-.46,3.33,0,1.38.16,2.43.46,3.13.31.7.79,1.03,1.44,1.03s1.14-.35,1.44-1.07c.3-.71.44-1.77.44-3.2s-.15-2.52-.44-3.25-.77-1.09-1.42-1.09h0Z"/>
    </g>
    <g>
      <path class="st13" d="M31.72,93.76l1.44-.79c.19.43.46.76.82,1,.36.23.8.35,1.34.35.59,0,1.08-.16,1.44-.46.37-.31.55-.76.55-1.34,0-.62-.24-1.09-.72-1.4s-1.17-.48-2.08-.48h-.88v-1.46h.82c.82,0,1.45-.15,1.86-.44s.62-.74.62-1.33c0-.53-.16-.93-.46-1.19-.31-.27-.68-.4-1.11-.4s-.78.11-1.11.32c-.33.21-.61.56-.83,1.02l-1.4-.65c.35-.7.82-1.24,1.42-1.61s1.29-.55,2.1-.55c.99,0,1.78.25,2.38.75s.89,1.19.89,2.08c0,.59-.16,1.12-.46,1.57-.31.45-.78.81-1.44,1.07v.03c.67.13,1.21.41,1.64.88.42.46.63,1.07.63,1.82,0,.97-.35,1.76-1.03,2.37-.69.61-1.61.91-2.76.91-.83,0-1.56-.17-2.2-.51s-1.11-.86-1.45-1.53h-.01Z"/>
      <path class="st13" d="M40.51,93.72l1.46-.79c.22.44.5.79.86,1.03s.79.36,1.33.36c.58,0,1.05-.18,1.4-.54.35-.36.53-.86.53-1.49,0-.7-.24-1.21-.72-1.55-.49-.34-1.13-.51-1.93-.51-.3,0-.62.01-.99.03s-.71.05-1.02.08l.39-5.85h5.5v1.53h-4.06l-.19,2.77c.17,0,.35-.02.52-.03.18,0,.36-.01.54-.01,1.21,0,2.14.32,2.8.94.65.62.98,1.44.98,2.43,0,1.1-.35,1.99-1.05,2.65-.7.68-1.61,1-2.74,1-.86,0-1.58-.18-2.2-.54-.61-.36-1.08-.87-1.42-1.53h0Z"/>
    </g>
    <path class="st13" d="M218.15,484.01h-1.8v-9.06c-.33.22-.7.42-1.09.59-.39.18-.79.33-1.19.44l-.46-1.48c.62-.18,1.23-.42,1.84-.75.6-.32,1.12-.69,1.56-1.1h1.14v11.34h0Z"/>
    <path class="st13" d="M318.86,484.01v-.68c0-.52.07-.97.22-1.37s.35-.77.6-1.11c.26-.34.58-.67.94-.96.37-.31.77-.61,1.21-.94.37-.26.68-.52.94-.75.26-.24.48-.48.63-.72s.29-.49.37-.74c.08-.25.13-.52.13-.79,0-.56-.16-.98-.46-1.27s-.71-.43-1.19-.43-.93.14-1.27.42c-.35.29-.63.69-.88,1.2l-1.47-.63c.38-.79.88-1.4,1.5-1.84.62-.43,1.38-.65,2.28-.65.96,0,1.75.27,2.38.82s.93,1.33.93,2.33c0,.41-.06.8-.19,1.17-.13.37-.31.72-.53,1.05-.23.33-.5.63-.8.93s-.65.58-1.06.87c-.38.29-.72.53-1,.74s-.53.41-.71.61c-.19.21-.32.4-.39.59s-.12.4-.12.62h5.04v1.54h-7.1v-.02Z"/>
    <path class="st13" d="M424.16,482.16l1.44-.79c.19.43.46.76.82,1,.36.23.8.35,1.34.35.59,0,1.08-.16,1.44-.46.37-.31.55-.76.55-1.34,0-.62-.24-1.09-.72-1.4-.48-.32-1.17-.48-2.08-.48h-.88v-1.46h.82c.82,0,1.45-.15,1.86-.44s.62-.74.62-1.33c0-.53-.16-.93-.46-1.19-.31-.27-.68-.4-1.11-.4s-.78.11-1.11.32c-.33.21-.61.56-.83,1.02l-1.4-.65c.35-.7.82-1.24,1.42-1.61.59-.37,1.29-.55,2.1-.55.99,0,1.78.25,2.38.75s.89,1.19.89,2.08c0,.59-.16,1.12-.46,1.57s-.78.81-1.44,1.07v.03c.67.13,1.21.41,1.64.88.42.46.63,1.07.63,1.82,0,.97-.35,1.76-1.03,2.37-.69.61-1.61.91-2.76.91-.83,0-1.56-.17-2.2-.51s-1.11-.86-1.45-1.53h-.01Z"/>
    <path class="st13" d="M536.24,472.86v7.24h1.13v1.48h-1.13v2.48h-1.74v-2.48h-4.95v-1.48c.44-.52.91-1.09,1.38-1.69s.93-1.23,1.36-1.85.83-1.26,1.2-1.89c.37-.63.69-1.24.94-1.82h1.81ZM531.31,480.11h3.19v-4.75c-.29.53-.57,1.01-.86,1.47s-.56.88-.82,1.26c-.26.39-.53.75-.78,1.09-.25.33-.5.64-.73.94h0Z"/>
    <path class="st13" d="M635.36,482.13l1.46-.79c.22.44.5.79.86,1.03.35.24.79.36,1.33.36.58,0,1.05-.18,1.4-.54.35-.36.53-.86.53-1.49,0-.7-.24-1.21-.72-1.55-.49-.34-1.13-.51-1.93-.51-.3,0-.62.01-1,.03-.37.02-.71.05-1.02.08l.39-5.85h5.5v1.53h-4.06l-.19,2.77c.17,0,.35-.02.52-.03.18,0,.36-.01.54-.01,1.21,0,2.14.32,2.8.94.65.62.98,1.44.98,2.43,0,1.1-.35,1.99-1.05,2.65-.7.68-1.61,1-2.72,1-.86,0-1.58-.18-2.2-.54s-1.08-.87-1.42-1.53h0Z"/>
    <path class="st13" d="M748.35,480.35c0,1.13-.34,2.06-1.02,2.78-.69.72-1.54,1.09-2.57,1.09-1.18,0-2.1-.43-2.75-1.31s-.97-2.18-.97-3.92c0-1.03.13-1.99.37-2.86s.61-1.59,1.11-2.14c.37-.41.79-.72,1.27-.92.48-.21.99-.31,1.53-.31.64,0,1.23.16,1.75.48s.94.78,1.23,1.38l-1.35.72c-.16-.34-.38-.6-.65-.8s-.62-.31-1.02-.31c-.29,0-.56.05-.81.17-.25.12-.5.31-.74.57-.31.34-.53.78-.69,1.35-.15.56-.23,1.18-.24,1.86h.04c.32-.39.68-.69,1.09-.88s.87-.29,1.36-.29c.95,0,1.7.32,2.26.94.56.62.83,1.44.83,2.42l-.02-.02ZM746.62,480.5c0-.62-.16-1.13-.48-1.52s-.77-.58-1.34-.58-1.06.2-1.4.6-.52.88-.52,1.43c0,.65.17,1.2.52,1.64s.8.65,1.36.65,1.01-.2,1.36-.6c.34-.4.51-.94.51-1.62h-.01Z"/>
    <g>
      <g>
        <path class="st13" d="M93.58,262.74h-2.93v-10.16c-.34.23-.72.42-1.13.58s-.87.32-1.35.48l-.8-2.33c.84-.24,1.65-.56,2.41-.93s1.43-.78,2.03-1.25h1.77v13.61Z"/>
        <path class="st13" d="M105.67,251.11c-1.19,2.13-2.14,4.06-2.85,5.78-.71,1.72-1.21,3.66-1.54,5.85h-3.07c.34-2.07.9-4,1.68-5.79s1.68-3.5,2.69-5.12h-6.2v-2.4h9.29v1.69h0Z"/>
        <path class="st13" d="M109.08,262.97c-.5,0-.92-.15-1.24-.45-.33-.3-.49-.69-.49-1.14s.16-.84.49-1.14.74-.45,1.24-.45.92.15,1.24.45.49.69.49,1.14-.16.84-.49,1.14c-.32.3-.74.45-1.25.45h.01Z"/>
        <path class="st13" d="M112.45,259.16c0-.75.2-1.43.59-2.02.39-.59.98-1.06,1.77-1.37-.6-.35-1.07-.78-1.39-1.3s-.5-1.09-.5-1.72c0-1.01.4-1.86,1.19-2.53.79-.67,1.82-1,3.05-1s2.26.33,3.06.99,1.19,1.5,1.19,2.5c0,.63-.18,1.2-.54,1.71s-.84.94-1.47,1.29c.79.32,1.38.78,1.78,1.38s.6,1.29.6,2.04c0,1.14-.43,2.06-1.29,2.77s-1.99,1.06-3.37,1.06-2.5-.35-3.38-1.06-1.31-1.62-1.31-2.74h-.01ZM115.15,258.91c0,.6.18,1.09.55,1.43s.84.52,1.44.52c.56,0,1.03-.18,1.4-.53s.56-.82.56-1.42c0-.54-.18-1-.55-1.38s-.83-.58-1.42-.58-1.05.19-1.42.56-.57.84-.57,1.4ZM115.55,252.98c0,.52.16.93.49,1.25s.7.48,1.13.48.82-.16,1.14-.46.49-.73.49-1.26-.16-.93-.48-1.23-.7-.44-1.15-.44-.84.15-1.15.45-.46.71-.46,1.21h0Z"/>
        <path class="st13" d="M126.57,256.17c-.95,0-1.71-.3-2.29-.9s-.87-1.4-.87-2.42c0-1.11.31-1.99.92-2.64s1.44-.97,2.46-.97,1.75.3,2.3.88.83,1.42.83,2.48-.31,1.96-.92,2.61-1.43.96-2.45.96h.01ZM136.29,249.42l-8.67,13.31h-2.26l8.65-13.31h2.28ZM126.75,250.88c-.45,0-.79.16-1.01.46-.22.32-.34.78-.34,1.42,0,.59.11,1.03.33,1.34s.54.44.96.44.77-.16.99-.46.33-.77.33-1.39-.11-1.06-.31-1.36c-.21-.3-.52-.45-.94-.45h-.01ZM134.86,262.92c-.95,0-1.71-.3-2.29-.9s-.87-1.4-.87-2.42c0-1.11.31-1.99.92-2.64s1.44-.97,2.46-.97,1.76.3,2.31.88.82,1.4.82,2.47-.31,1.96-.92,2.62-1.43.97-2.45.97h.01ZM135,257.63c-.44,0-.78.16-1,.46s-.34.78-.34,1.42c0,.59.11,1.03.33,1.34s.55.44.98.44.77-.16.99-.46.33-.77.33-1.39c0-.57-.12-1.02-.35-1.34s-.55-.48-.93-.48h-.01Z"/>
      </g>
      <g>
        <path class="st13" d="M192.79,74.25l1.12-1.95c.5.29.93.5,1.31.62s.84.19,1.42.19c.75,0,1.3-.18,1.65-.53s.53-.76.53-1.23c0-.64-.25-1.13-.77-1.45s-1.23-.49-2.13-.49h-1.09v-2.25h.99c.87,0,1.52-.15,1.95-.43.43-.29.65-.77.65-1.45,0-.49-.14-.86-.41-1.11s-.67-.37-1.18-.37c-.37,0-.78.06-1.24.2-.45.14-.93.35-1.44.63l-1.06-1.94c.69-.4,1.36-.69,2.02-.87.65-.18,1.38-.26,2.19-.26,1.23,0,2.22.31,2.98.92s1.14,1.4,1.14,2.39c0,.81-.19,1.5-.57,2.04s-.95.95-1.71,1.23v.04c.82.16,1.48.52,1.95,1.08.48.57.72,1.25.72,2.03,0,1.17-.43,2.14-1.31,2.9s-2.06,1.14-3.55,1.14c-.78,0-1.5-.08-2.15-.26s-1.33-.45-2-.84v.02Z"/>
        <path class="st13" d="M203.68,73.98l1.35-1.8c.42.32.87.56,1.31.71s.89.22,1.34.22c.68,0,1.19-.18,1.57-.55s.56-.84.56-1.42c0-.72-.23-1.24-.71-1.57s-1.17-.5-2.11-.5c-.34,0-.71.01-1.11.04s-.82.06-1.27.12l.5-7.42h7.04v2.4h-4.81l-.19,2.66c.24-.02.46-.03.67-.04.2,0,.39-.01.57-.01,1.36,0,2.44.36,3.21,1.08s1.16,1.71,1.16,2.98-.44,2.36-1.32,3.21-2.09,1.28-3.64,1.28c-.79,0-1.52-.12-2.19-.34s-1.31-.57-1.95-1.05h.01Z"/>
        <path class="st13" d="M216.28,75.36c-.5,0-.92-.15-1.24-.45-.33-.3-.49-.69-.49-1.14s.16-.84.49-1.14.74-.45,1.24-.45.92.15,1.24.45.49.69.49,1.14-.16.84-.49,1.14c-.32.3-.74.45-1.25.45h.01Z"/>
        <path class="st13" d="M228.86,70.79c0,1.31-.42,2.4-1.26,3.26s-1.91,1.31-3.21,1.31c-1.46,0-2.59-.54-3.4-1.61s-1.21-2.6-1.21-4.57c0-1.14.13-2.19.38-3.13s.63-1.74,1.14-2.41c.5-.67,1.08-1.17,1.75-1.52s1.52-.53,2.55-.53c.44,0,.92.07,1.43.22s1.05.44,1.61.89l-1.5,1.72c-.24-.2-.5-.36-.74-.45s-.55-.15-.91-.15c-.44,0-.82.1-1.16.27-.34.18-.64.45-.92.8-.26.34-.48.75-.61,1.24s-.22,1.01-.23,1.59h.05c.34-.38.73-.68,1.18-.87.45-.2.97-.3,1.54-.3,1.07,0,1.92.38,2.57,1.14s.96,1.78.96,3.07h0ZM226.11,70.89c0-.72-.15-1.26-.43-1.61s-.69-.54-1.2-.54c-.59,0-1.05.2-1.37.6s-.49.91-.49,1.52.16,1.16.49,1.61c.33.43.75.65,1.28.65s.95-.2,1.27-.59.46-.94.46-1.64h0Z"/>
        <path class="st13" d="M233.78,68.57c-.95,0-1.71-.3-2.29-.9s-.87-1.4-.87-2.42c0-1.11.31-1.99.92-2.64s1.44-.97,2.46-.97,1.75.3,2.3.88.83,1.42.83,2.48-.31,1.96-.92,2.61-1.43.96-2.45.96h.01ZM243.49,61.82l-8.67,13.31h-2.26l8.65-13.31h2.28ZM233.95,63.27c-.45,0-.79.16-1.01.46-.22.32-.34.78-.34,1.42,0,.59.11,1.03.33,1.34s.54.44.96.44.77-.16.99-.46.33-.77.33-1.39-.11-1.06-.31-1.36c-.21-.3-.52-.45-.94-.45h-.01ZM242.06,75.32c-.95,0-1.71-.3-2.29-.9s-.87-1.4-.87-2.42c0-1.11.31-1.99.92-2.64s1.44-.97,2.46-.97,1.76.3,2.31.88.82,1.4.82,2.47-.31,1.96-.92,2.62-1.43.97-2.45.97h.01ZM242.21,70.02c-.44,0-.78.16-1,.46s-.34.78-.34,1.42c0,.59.11,1.03.33,1.34s.55.44.98.44.77-.16.99-.46.33-.77.33-1.39c0-.57-.12-1.02-.35-1.34s-.55-.48-.93-.48h-.01Z"/>
      </g>
      <g>
        <path class="st13" d="M293.13,138.77v-1c0-.68.12-1.29.35-1.84.23-.54.52-1.02.87-1.46.35-.42.73-.8,1.14-1.14.41-.33.8-.63,1.17-.9.39-.27.73-.54,1.01-.78.29-.25.54-.5.76-.73.23-.24.39-.51.5-.78.11-.27.16-.6.16-.97,0-.45-.15-.83-.43-1.14-.29-.31-.71-.46-1.27-.46-.36,0-.81.1-1.37.27s-1.1.48-1.64.88l-1.42-1.87c.75-.56,1.51-.97,2.3-1.24.78-.26,1.65-.39,2.59-.39,1.28,0,2.29.35,3.04,1.03s1.13,1.53,1.13,2.52c0,.78-.1,1.4-.29,1.88s-.44.9-.76,1.28c-.31.39-.67.75-1.08,1.07-.41.33-.83.64-1.27.94-.3.21-.58.42-.86.62s-.52.41-.73.61-.38.4-.5.59-.19.37-.19.55h5.64v2.43h-8.85l-.02.02Z"/>
        <path class="st13" d="M312.96,131.48c0,2.39-.45,4.23-1.37,5.55s-2.33,1.97-4.26,1.97c-.68,0-1.29-.1-1.85-.3s-1.1-.51-1.63-.94l1.42-1.74c.32.25.63.44.97.56s.74.18,1.21.18c.92,0,1.62-.33,2.09-.99s.72-1.62.73-2.87l-.05-.02c-.29.38-.64.68-1.08.87-.43.2-.95.3-1.53.3-1.06,0-1.93-.39-2.62-1.15-.69-.77-1.03-1.75-1.03-2.95,0-1.4.42-2.53,1.26-3.4s1.92-1.3,3.26-1.3,2.49.55,3.28,1.65,1.19,2.63,1.19,4.59h0ZM310.16,129.92c0-.68-.16-1.26-.49-1.73s-.75-.71-1.28-.71-.91.21-1.24.63-.49.95-.49,1.57c0,.7.17,1.24.5,1.61.33.38.76.56,1.29.56s.93-.19,1.24-.57.46-.83.46-1.37h0Z"/>
        <path class="st13" d="M316.46,139c-.5,0-.92-.15-1.24-.45-.33-.3-.49-.69-.49-1.14s.16-.84.49-1.14.74-.45,1.24-.45.92.15,1.24.45.49.69.49,1.14-.16.84-.49,1.14c-.32.3-.74.45-1.25.45h.01Z"/>
        <path class="st13" d="M329.04,134.43c0,1.31-.42,2.4-1.26,3.26s-1.91,1.31-3.21,1.31c-1.46,0-2.59-.54-3.4-1.61s-1.21-2.6-1.21-4.57c0-1.14.13-2.19.38-3.13s.63-1.74,1.14-2.41c.5-.67,1.08-1.17,1.75-1.52s1.52-.53,2.55-.53c.44,0,.92.07,1.43.22s1.05.44,1.61.89l-1.5,1.72c-.24-.2-.5-.36-.74-.45s-.55-.15-.91-.15c-.44,0-.82.1-1.16.27s-.64.45-.92.8c-.26.34-.48.75-.61,1.24s-.22,1.01-.23,1.59h.05c.34-.38.73-.68,1.18-.87.45-.2.97-.3,1.54-.3,1.07,0,1.92.38,2.57,1.14s.96,1.78.96,3.07h0ZM326.29,134.53c0-.72-.15-1.26-.43-1.61s-.69-.54-1.2-.54c-.59,0-1.05.2-1.37.6s-.49.91-.49,1.52.16,1.16.49,1.61c.33.43.75.65,1.28.65s.95-.2,1.27-.59.46-.94.46-1.64h0Z"/>
        <path class="st13" d="M339.97,134.43c0,1.31-.42,2.4-1.26,3.26s-1.91,1.31-3.21,1.31c-1.46,0-2.59-.54-3.4-1.61s-1.21-2.6-1.21-4.57c0-1.14.13-2.19.38-3.13s.63-1.74,1.14-2.41c.5-.67,1.08-1.17,1.75-1.52s1.52-.53,2.55-.53c.44,0,.92.07,1.43.22s1.05.44,1.61.89l-1.5,1.72c-.24-.2-.5-.36-.74-.45s-.55-.15-.91-.15c-.44,0-.82.1-1.16.27s-.64.45-.92.8c-.26.34-.48.75-.61,1.24s-.22,1.01-.23,1.59h.05c.34-.38.73-.68,1.18-.87.45-.2.97-.3,1.54-.3,1.07,0,1.92.38,2.57,1.14s.96,1.78.96,3.07h0ZM337.23,134.53c0-.72-.15-1.26-.43-1.61s-.69-.54-1.2-.54c-.59,0-1.05.2-1.37.6s-.49.91-.49,1.52.16,1.16.49,1.61c.33.43.75.65,1.28.65s.95-.2,1.27-.59.46-.94.46-1.64h0Z"/>
        <path class="st13" d="M344.89,132.21c-.95,0-1.71-.3-2.29-.9s-.87-1.4-.87-2.42c0-1.11.31-1.99.92-2.64s1.44-.97,2.46-.97,1.75.3,2.3.88.83,1.42.83,2.48-.31,1.96-.92,2.61-1.43.96-2.45.96h.01ZM354.6,125.46l-8.67,13.31h-2.26l8.65-13.31h2.28ZM345.06,126.91c-.45,0-.79.16-1.01.46-.22.32-.34.78-.34,1.42,0,.59.11,1.03.33,1.34s.54.44.96.44.77-.16.99-.46.33-.77.33-1.39-.11-1.06-.31-1.36c-.21-.3-.52-.45-.94-.45h-.01ZM353.18,138.96c-.95,0-1.71-.3-2.29-.9s-.87-1.4-.87-2.42c0-1.11.31-1.99.92-2.64s1.44-.97,2.46-.97,1.76.3,2.31.88.82,1.4.82,2.47-.31,1.96-.92,2.62-1.43.97-2.45.97h.01ZM353.33,133.66c-.44,0-.78.16-1,.46s-.34.78-.34,1.42c0,.59.11,1.03.33,1.34s.55.44.98.44.77-.16.99-.46.33-.77.33-1.39c0-.57-.12-1.02-.35-1.34s-.55-.48-.93-.48h-.01Z"/>
      </g>
      <g>
        <path class="st13" d="M406.53,313.1h-2.93v-10.16c-.34.23-.72.42-1.13.58s-.87.32-1.35.48l-.8-2.33c.84-.24,1.65-.56,2.41-.93s1.43-.78,2.03-1.25h1.77v13.6h0Z"/>
        <path class="st13" d="M409.48,312.23l1.12-1.95c.5.29.93.5,1.31.62s.84.19,1.42.19c.75,0,1.3-.18,1.65-.53s.53-.76.53-1.23c0-.64-.25-1.13-.77-1.45s-1.23-.49-2.13-.49h-1.09v-2.25h.99c.87,0,1.52-.15,1.95-.43s.65-.77.65-1.45c0-.49-.14-.86-.41-1.11s-.67-.37-1.18-.37c-.37,0-.78.06-1.24.2-.45.14-.93.35-1.44.63l-1.06-1.94c.69-.4,1.36-.69,2.02-.87s1.38-.26,2.19-.26c1.23,0,2.22.31,2.98.92s1.14,1.4,1.14,2.39c0,.81-.19,1.5-.57,2.04s-.95.95-1.71,1.23v.04c.82.16,1.48.52,1.95,1.08.48.57.72,1.25.72,2.03,0,1.17-.43,2.14-1.31,2.9s-2.06,1.14-3.55,1.14c-.78,0-1.5-.08-2.15-.26s-1.33-.45-2-.84v.02Z"/>
        <path class="st13" d="M422.02,313.34c-.5,0-.92-.15-1.24-.45-.33-.3-.49-.69-.49-1.14s.16-.84.49-1.14.74-.45,1.24-.45.92.15,1.24.45.49.69.49,1.14-.16.84-.49,1.14c-.32.3-.74.45-1.25.45h.01Z"/>
        <path class="st13" d="M430.9,313.1h-2.93v-10.16c-.34.23-.72.42-1.13.58s-.87.32-1.35.48l-.8-2.33c.84-.24,1.65-.56,2.41-.93s1.43-.78,2.03-1.25h1.77v13.6h0Z"/>
        <path class="st13" d="M433.66,309.52c0-.75.2-1.43.59-2.02s.98-1.06,1.77-1.37c-.6-.35-1.07-.78-1.39-1.3s-.5-1.09-.5-1.72c0-1.01.4-1.86,1.19-2.53.79-.67,1.82-1,3.05-1s2.26.33,3.06.99,1.19,1.5,1.19,2.5c0,.63-.18,1.2-.54,1.71s-.84.94-1.47,1.29c.79.32,1.38.78,1.78,1.38s.6,1.29.6,2.04c0,1.14-.43,2.06-1.29,2.77s-1.99,1.06-3.37,1.06-2.5-.35-3.38-1.06-1.31-1.62-1.31-2.74h-.01ZM436.38,309.27c0,.6.18,1.09.55,1.43s.84.52,1.44.52c.56,0,1.03-.18,1.4-.53s.56-.82.56-1.42c0-.54-.18-1-.55-1.38s-.83-.58-1.42-.58-1.05.19-1.42.56-.57.84-.57,1.4h0ZM436.78,303.35c0,.52.16.93.49,1.25s.7.48,1.13.48.82-.16,1.14-.46.49-.73.49-1.26-.16-.93-.48-1.23-.7-.44-1.15-.44-.84.15-1.15.45-.46.71-.46,1.21h0Z"/>
        <path class="st13" d="M447.79,306.55c-.95,0-1.71-.3-2.29-.9s-.87-1.4-.87-2.42c0-1.11.31-1.99.92-2.64s1.44-.97,2.46-.97,1.75.3,2.3.88.83,1.42.83,2.48-.31,1.96-.92,2.61-1.43.96-2.45.96h.01ZM457.51,299.8l-8.67,13.31h-2.26l8.65-13.31h2.28ZM447.97,301.25c-.45,0-.79.16-1.01.46-.22.32-.34.78-.34,1.42,0,.59.11,1.03.33,1.34s.54.44.96.44.77-.16.99-.46.33-.77.33-1.39-.11-1.06-.31-1.36c-.21-.3-.52-.45-.94-.45h-.01ZM456.08,313.29c-.95,0-1.71-.3-2.29-.9s-.87-1.4-.87-2.42c0-1.11.31-1.99.92-2.64s1.44-.97,2.46-.97,1.76.3,2.31.88.82,1.4.82,2.47-.31,1.96-.92,2.62-1.43.97-2.45.97h.01ZM456.23,307.99c-.44,0-.78.16-1,.46s-.34.78-.34,1.42c0,.59.11,1.03.33,1.34s.55.44.98.44.77-.16.99-.46.33-.77.33-1.39c0-.57-.12-1.02-.35-1.34s-.55-.48-.93-.48h-.01Z"/>
      </g>
      <g>
        <path class="st13" d="M515.12,417l1.12-1.95c.5.29.93.5,1.31.62s.84.19,1.42.19c.75,0,1.3-.18,1.65-.53s.53-.76.53-1.23c0-.64-.25-1.13-.77-1.45s-1.23-.49-2.13-.49h-1.09v-2.25h.99c.87,0,1.52-.15,1.95-.43s.65-.77.65-1.45c0-.49-.14-.86-.41-1.11s-.67-.37-1.18-.37c-.37,0-.78.06-1.24.2-.45.14-.93.35-1.44.63l-1.06-1.94c.69-.4,1.36-.69,2.02-.87s1.38-.26,2.19-.26c1.23,0,2.22.31,2.98.92s1.14,1.4,1.14,2.39c0,.81-.19,1.5-.57,2.04s-.95.95-1.71,1.23v.04c.82.16,1.48.52,1.95,1.08.48.57.72,1.25.72,2.03,0,1.17-.43,2.14-1.31,2.9s-2.06,1.14-3.55,1.14c-.78,0-1.5-.08-2.15-.26s-1.33-.45-2-.84v.02Z"/>
        <path class="st13" d="M527.67,418.11c-.5,0-.92-.15-1.24-.45-.33-.3-.49-.69-.49-1.14s.16-.84.49-1.14.74-.45,1.24-.45.92.15,1.24.45.49.69.49,1.14-.16.84-.49,1.14c-.32.3-.74.45-1.25.45h.01Z"/>
        <path class="st13" d="M531.21,417l1.12-1.95c.5.29.93.5,1.31.62s.84.19,1.42.19c.75,0,1.3-.18,1.65-.53s.53-.76.53-1.23c0-.64-.25-1.13-.77-1.45s-1.23-.49-2.13-.49h-1.09v-2.25h.99c.87,0,1.52-.15,1.95-.43s.65-.77.65-1.45c0-.49-.14-.86-.41-1.11s-.67-.37-1.18-.37c-.37,0-.78.06-1.24.2s-.93.35-1.44.63l-1.06-1.94c.69-.4,1.36-.69,2.02-.87s1.38-.26,2.19-.26c1.23,0,2.22.31,2.98.92s1.14,1.4,1.14,2.39c0,.81-.19,1.5-.57,2.04s-.95.95-1.71,1.23v.04c.82.16,1.48.52,1.95,1.08.48.57.72,1.25.72,2.03,0,1.17-.43,2.14-1.31,2.9s-2.06,1.14-3.55,1.14c-.78,0-1.5-.08-2.15-.26s-1.33-.45-2-.84v.02Z"/>
        <path class="st13" d="M545.16,411.32c-.95,0-1.71-.3-2.29-.9s-.87-1.4-.87-2.42c0-1.11.31-1.99.92-2.64s1.44-.97,2.46-.97,1.75.3,2.3.88.83,1.42.83,2.48-.31,1.96-.92,2.61-1.43.96-2.45.96h.01ZM554.89,404.57l-8.67,13.31h-2.26l8.65-13.31h2.28ZM545.34,406.02c-.45,0-.79.16-1.01.46-.22.32-.34.78-.34,1.42,0,.59.11,1.03.33,1.34s.54.44.96.44.77-.16.99-.46.33-.77.33-1.39-.11-1.06-.31-1.36c-.21-.3-.52-.45-.94-.45h-.01ZM553.45,418.07c-.95,0-1.71-.3-2.29-.9s-.87-1.4-.87-2.42c0-1.11.31-1.99.92-2.64s1.44-.97,2.46-.97,1.76.3,2.31.88.82,1.4.82,2.47-.31,1.96-.92,2.62-1.43.97-2.45.97h.01ZM553.6,412.77c-.44,0-.78.16-1,.46s-.34.78-.34,1.42c0,.59.11,1.03.33,1.34s.55.44.98.44.77-.16.99-.46.33-.77.33-1.39c0-.57-.12-1.02-.35-1.34s-.55-.48-.93-.48h-.01Z"/>
      </g>
      <g>
        <path class="st13" d="M619.72,448.26c-1.61,0-2.79-.56-3.53-1.67s-1.11-2.78-1.11-5.01.4-4.07,1.21-5.28,1.95-1.82,3.43-1.82c1.7,0,2.89.57,3.59,1.69.7,1.13,1.05,2.83,1.05,5.09s-.38,3.98-1.15,5.17-1.93,1.81-3.49,1.81h-.01ZM619.72,436.73c-.59,0-1.01.4-1.27,1.19s-.38,1.99-.38,3.59c0,1.5.13,2.62.39,3.38.26.75.69,1.13,1.27,1.13.64,0,1.08-.39,1.31-1.16s.35-1.93.35-3.49-.12-2.7-.36-3.49-.68-1.16-1.31-1.16h0Z"/>
        <path class="st13" d="M627.77,448.26c-.5,0-.92-.15-1.24-.45-.33-.3-.49-.69-.49-1.14s.16-.84.49-1.14.74-.45,1.24-.45.92.15,1.24.45.49.69.49,1.14-.16.84-.49,1.14c-.32.3-.74.45-1.25.45h.01Z"/>
        <path class="st13" d="M639.32,434.71v8.4h1.26v2.19h-1.26v2.72h-2.79v-2.72h-5.48v-2.29c.49-.57.98-1.2,1.51-1.89s1.02-1.38,1.51-2.11.94-1.46,1.36-2.19c.42-.73.77-1.44,1.07-2.1h2.83-.01ZM633.6,443.11h2.94v-4.57c-.2.4-.43.81-.68,1.23-.24.41-.49.81-.74,1.21-.25.39-.51.77-.77,1.13s-.51.7-.75,1.01h0Z"/>
        <path class="st13" d="M650.25,434.71v8.4h1.26v2.19h-1.26v2.72h-2.79v-2.72h-5.48v-2.29c.49-.57.98-1.2,1.51-1.89s1.02-1.38,1.51-2.11.94-1.46,1.36-2.19c.42-.73.77-1.44,1.07-2.1h2.83-.01ZM644.54,443.11h2.94v-4.57c-.2.4-.43.81-.68,1.23-.24.41-.49.81-.74,1.21-.25.39-.51.77-.77,1.13s-.51.7-.75,1.01h0Z"/>
        <path class="st13" d="M656.21,441.46c-.95,0-1.71-.3-2.29-.9s-.87-1.4-.87-2.42c0-1.11.31-1.99.93-2.64s1.44-.97,2.46-.97,1.75.3,2.3.88.83,1.42.83,2.48-.31,1.96-.92,2.61-1.43.96-2.45.96h0ZM665.93,434.71l-8.67,13.31h-2.26l8.65-13.31h2.28ZM656.38,436.16c-.45,0-.79.16-1.01.46-.22.32-.34.78-.34,1.42,0,.59.11,1.03.33,1.34s.54.44.96.44.77-.16.99-.46.33-.77.33-1.39-.11-1.06-.31-1.36c-.21-.3-.52-.45-.94-.45h-.01ZM664.49,448.21c-.95,0-1.71-.3-2.29-.9s-.87-1.4-.87-2.42c0-1.11.31-1.99.93-2.64s1.44-.97,2.46-.97,1.76.3,2.31.88.82,1.4.82,2.47-.31,1.96-.92,2.62-1.43.97-2.45.97h0ZM664.64,442.91c-.44,0-.78.16-1,.46s-.34.78-.34,1.42c0,.59.11,1.03.33,1.34s.55.44.98.44.77-.16.99-.46.33-.77.33-1.39c0-.57-.12-1.02-.35-1.34s-.55-.48-.93-.48h-.01Z"/>
      </g>
      <g>
        <path class="st13" d="M724.78,451.37c-1.66,0-2.87-.56-3.63-1.67-.76-1.11-1.15-2.78-1.15-5.01s.41-4.07,1.25-5.28,2.01-1.82,3.54-1.82c1.75,0,2.98.57,3.71,1.69.72,1.13,1.08,2.83,1.08,5.09s-.4,3.98-1.19,5.17c-.79,1.2-2,1.81-3.59,1.81h0ZM724.78,439.83c-.61,0-1.05.4-1.31,1.19s-.39,1.99-.39,3.59c0,1.5.14,2.62.4,3.38.27.75.71,1.13,1.31,1.13.67,0,1.11-.39,1.35-1.16s.36-1.93.36-3.49-.13-2.7-.37-3.49-.7-1.16-1.34-1.16h-.01Z"/>
        <path class="st13" d="M733.08,451.37c-.52,0-.94-.15-1.28-.45-.34-.3-.51-.69-.51-1.14s.17-.84.51-1.14.76-.45,1.28-.45.94.15,1.28.45c.34.3.51.69.51,1.14s-.17.84-.5,1.14-.76.45-1.28.45h-.01Z"/>
        <path class="st13" d="M741.37,451.37c-1.66,0-2.87-.56-3.63-1.67-.76-1.11-1.15-2.78-1.15-5.01s.41-4.07,1.25-5.28,2.01-1.82,3.54-1.82c1.75,0,2.98.57,3.71,1.69.72,1.13,1.08,2.83,1.08,5.09s-.4,3.98-1.19,5.17c-.79,1.2-2,1.81-3.59,1.81h0ZM741.36,439.83c-.61,0-1.05.4-1.31,1.19s-.39,1.99-.39,3.59c0,1.5.14,2.62.4,3.38.27.75.71,1.13,1.31,1.13.67,0,1.11-.39,1.35-1.16s.36-1.93.36-3.49-.13-2.7-.37-3.49-.7-1.16-1.34-1.16h-.01Z"/>
        <path class="st13" d="M748.16,451.13v-1c0-.68.12-1.29.35-1.84.23-.54.53-1.02.89-1.46.36-.42.75-.8,1.17-1.14.42-.33.82-.63,1.21-.9.4-.27.75-.54,1.05-.78.3-.25.56-.5.78-.73.23-.24.41-.51.52-.78.11-.27.16-.6.16-.97,0-.45-.15-.83-.44-1.14-.3-.31-.73-.46-1.31-.46-.37,0-.84.1-1.42.27-.57.19-1.14.48-1.68.88l-1.46-1.87c.77-.56,1.56-.97,2.37-1.24s1.7-.39,2.66-.39c1.31,0,2.36.35,3.14,1.03s1.16,1.53,1.16,2.52c0,.78-.1,1.4-.3,1.88-.19.48-.45.9-.78,1.28-.32.39-.69.75-1.11,1.07-.42.33-.86.64-1.31.94-.31.21-.6.42-.89.62s-.54.41-.75.61c-.22.2-.39.4-.52.59s-.19.37-.19.55h5.82v2.43h-9.14v.02Z"/>
        <path class="st13" d="M762.4,444.57c-.97,0-1.76-.3-2.36-.9-.6-.6-.9-1.4-.9-2.42,0-1.11.32-1.99.95-2.64.63-.65,1.48-.97,2.55-.97s1.81.3,2.38.88c.57.59.86,1.42.86,2.48s-.32,1.96-.95,2.61c-.63.64-1.48.96-2.52.96h0ZM772.42,437.82l-8.93,13.31h-2.33l8.92-13.31h2.36-.01ZM762.58,439.27c-.46,0-.81.16-1.05.46-.23.32-.35.78-.35,1.42,0,.59.12,1.03.34,1.34.22.3.56.44.99.44s.79-.16,1.01-.46.34-.77.34-1.39-.11-1.06-.32-1.36c-.21-.3-.54-.45-.97-.45h0ZM770.94,451.31c-.97,0-1.76-.3-2.36-.9-.6-.6-.9-1.4-.9-2.42,0-1.11.32-1.99.95-2.64.63-.65,1.48-.97,2.55-.97s1.82.3,2.39.88c.57.58.86,1.4.86,2.47s-.32,1.96-.95,2.62c-.63.65-1.48.97-2.52.97h-.01ZM771.1,446.02c-.46,0-.8.16-1.03.46s-.35.78-.35,1.42c0,.59.12,1.03.34,1.34.22.3.56.44,1.01.44s.79-.16,1.01-.46.34-.77.34-1.39c0-.57-.12-1.02-.36-1.34s-.56-.48-.96-.48h0Z"/>
      </g>
    </g>
    <g>
      <path class="st13" d="M786.74,479.99h-1.42v-2.81h-2.32v.99h-5.4v-5.7h1.42v1.81h2.58v-1.81h1.4v1.2h2.32v-1.93h1.42v8.26h0ZM781.59,477.07v-1.74h-2.58v1.74h2.58ZM786.99,482.68h-7.86v-3.52h1.45v2.4h6.42v1.11h-.01ZM785.32,476.06v-1.29h-2.32v1.29h2.32Z"/>
      <path class="st13" d="M798.91,481.72h-10.54v-1.1h2.62v-1.91c-.41-.19-.73-.42-.94-.71s-.33-.61-.32-.98c0-.44.15-.82.46-1.14s.76-.56,1.35-.73,1.28-.25,2.08-.25,1.48.08,2.06.25,1.03.41,1.34.73.48.7.48,1.14c0,.37-.11.7-.32.97-.21.29-.53.52-.93.71v1.92h2.67v1.1h-.02ZM798.37,474.33h-9.54v-1.1h4.07v-1.36h1.4v1.36h4.06v1.1h.01ZM791.8,476.22c-.42.18-.63.44-.62.79,0,.35.2.61.62.79s1.02.27,1.82.27,1.37-.1,1.8-.27.62-.44.62-.79-.21-.61-.62-.79-1.01-.27-1.8-.27-1.39.1-1.82.27ZM794.84,480.61v-1.54c-.36.05-.77.08-1.23.08s-.84-.02-1.21-.07v1.53h2.44Z"/>
      <path class="st13" d="M807.36,476.06c-.26.89-.71,1.72-1.34,2.48-.63.76-1.47,1.44-2.52,2.03l-.81-.95c1.19-.67,2.08-1.45,2.66-2.32.58-.89.93-1.9,1.03-3.05h-3.17v-1.1h4.54c0,1.07-.13,2.04-.39,2.94v-.02ZM812.67,482.9h-1.36v-5.75h-1.24v5.23h-1.33v-10.37h1.33v4.03h1.24v-4.33h1.36v11.18Z"/>
      <path class="st13" d="M824.57,479h-4.58v3.9h-1.4v-3.9h-4.53v-1.14h10.52v1.14ZM820.58,474.02c.34.44.82.82,1.45,1.14s1.33.53,2.12.62l-.56,1.11c-.97-.14-1.83-.43-2.58-.87-.75-.44-1.31-.97-1.69-1.62-.38.63-.94,1.17-1.68,1.62s-1.59.73-2.56.87l-.56-1.11c.79-.1,1.5-.31,2.11-.62s1.1-.7,1.44-1.14.51-.91.51-1.37v-.57h1.49v.57c0,.48.17.93.52,1.37h-.01Z"/>
      <path class="st13" d="M832.81,471.79l-2.21,7.35,1.84-1.65.61-.53c.18-.18.3-.33.37-.45.04-.07.06-.15.06-.22,0-.11-.05-.2-.16-.27s-.37-.13-.78-.15l.08-.3h3.26l-.08.3c-.38.08-.7.19-.94.31-.19.08-.41.23-.69.43-.4.31-.7.54-.88.71l-.35.32.49,2.14c.19.83.33,1.31.42,1.44.06.07.13.12.21.12.19,0,.41-.21.67-.63.04-.05.08-.14.16-.24l.3.18c-.4.73-.86,1.28-1.35,1.66-.34.25-.64.38-.92.38s-.5-.1-.68-.29c-.18-.19-.36-.69-.55-1.49l-.4-1.76-.89.76-.8,2.66h-2.05l2.66-8.78c.12-.37.17-.62.17-.75,0-.12-.03-.22-.08-.3s-.13-.13-.22-.17-.29-.05-.56-.05l.07-.29,2.72-.45h.49v.02Z"/>
    </g>
    <g>
      <path class="st13" d="M8.12,42.83v-.69c-.64-.07-1.16-.26-1.53-.55s-.56-.64-.56-1.09c0-.34.12-.63.35-.89s.56-.44.97-.58c.42-.14.91-.2,1.46-.19.56,0,1.05.06,1.47.19s.74.33.97.58c.23.25.35.55.35.89,0,.43-.18.79-.55,1.08s-.87.46-1.51.55v.63c1.07-.04,2.03-.13,2.89-.23l.12.95c-1.1.19-2.22.31-3.38.36s-2.43.08-3.8.08l-.16-1.08c1.08,0,2.04,0,2.9-.03h.01ZM12.12,38.54h-6.62v-1.01h2.62v-.98h1.42v.98h2.59v1.01ZM14.44,47.82h-1.42v-2.06h-6.37v-1.08h7.78v3.13h0ZM7.75,39.96c-.25.13-.37.31-.37.55s.12.41.37.55.6.2,1.05.19c.44,0,.79-.06,1.05-.19s.38-.32.38-.55-.13-.42-.38-.55-.6-.19-1.06-.18c-.45,0-.8.05-1.05.18h.01ZM14.44,39.9h1.55v1.14h-1.55v3.17h-1.42v-7.56h1.42v3.25Z"/>
      <path class="st13" d="M27.13,42.65h-2.68v.77h1.4v2.55h-6.61v.79h6.96v.95h-8.37v-2.64h6.62v-.7h-6.63v-.96h1.47v-.77h-2.69v-1.02h10.54v1.02h0ZM25.83,39.38h-6.49v.68h6.7v.95h-8.1v-2.52h6.48v-.68h-6.52v-.94h7.94v2.51h-.01ZM23.04,43.43v-.77h-2.37v.77h2.37Z"/>
      <path class="st13" d="M30.49,37.36h1.53c-.31.41-.59.95-.86,1.61s-.49,1.36-.65,2.12-.25,1.49-.25,2.21.08,1.45.25,2.21.38,1.47.65,2.12.56,1.19.86,1.62h-1.53c-.62-.87-1.1-1.78-1.43-2.77-.33-.98-.5-2.04-.5-3.17,0-2.19.63-4.16,1.91-5.92v-.02Z"/>
      <path class="st13" d="M34.33,41.83c-.31-.19-.54-.46-.7-.81s-.23-.75-.23-1.21.08-.86.24-1.2c.16-.35.39-.62.7-.81s.67-.29,1.09-.29.81.1,1.12.29.54.46.7.8c.16.35.23.75.23,1.2s-.08.87-.24,1.21c-.16.35-.39.62-.7.81s-.68.29-1.1.29-.79-.1-1.1-.29h-.01ZM36.07,40.77c.15-.23.22-.56.22-.97s-.07-.73-.21-.96-.36-.35-.64-.35-.49.12-.63.36c-.15.23-.22.56-.22.96s.07.73.22.97c.15.23.36.36.63.36s.5-.12.63-.35v-.02ZM40.95,37.75h1.29l-6.36,8.96h-1.29l6.36-8.96ZM40.37,46.67c-.31-.19-.54-.46-.7-.81s-.23-.75-.23-1.21.08-.87.24-1.21.39-.62.7-.81.67-.3,1.09-.3.8.1,1.11.29.54.46.7.81.23.75.23,1.21-.08.87-.24,1.21-.39.61-.7.8-.68.29-1.11.29-.79-.08-1.1-.29v.02ZM42.11,45.61c.14-.23.21-.55.21-.96s-.07-.74-.21-.98-.36-.35-.64-.35-.49.12-.63.36-.22.56-.22.96.07.73.22.96.36.35.63.35.5-.12.64-.35h0Z"/>
      <path class="st13" d="M47.85,46.47c-.33.98-.8,1.9-1.43,2.77h-1.53c.31-.42.59-.96.86-1.62s.49-1.36.65-2.12.25-1.49.25-2.21-.08-1.45-.25-2.21-.38-1.47-.65-2.12-.56-1.19-.86-1.61h1.53c1.28,1.76,1.91,3.74,1.91,5.92,0,1.13-.17,2.2-.5,3.17v.02Z"/>
    </g>
  </g>
</svg>