<?xml version="1.0" encoding="UTF-8"?>
<svg id="_레이어_1" xmlns="http://www.w3.org/2000/svg" version="1.1" viewBox="0 0 512 107.51">
  <!-- Generator: Adobe Illustrator 29.7.1, SVG Export Plug-In . SVG Version: 2.1.1 Build 8)  -->
  <defs>
    <style>
      .st0 {
        fill: #eaf0ff;
      }
    </style>
  </defs>
  <path class="st0" d="M34.11,53.61c0,13.71-9.42,25.53-18.5,25.53H2.2V2.55h13.41c10.97,0,18.5,4.64,18.5,15.95v35.1ZM27.72,18.51c0-9.27-2.94-14.06-14.66-14.06h-4.49v72.79h4.49c9.82,0,14.66-10.77,14.66-23.63V18.51Z"/>
  <path class="st0" d="M49.81,15.32c0,2.09-1.75,3.84-3.84,3.84s-3.84-1.7-3.84-3.84,1.7-3.84,3.84-3.84,3.84,1.75,3.84,3.84ZM49.16,28.08v51.05h-6.38V28.08h6.38Z"/>
  <path class="st0" d="M86.8,80.93l-22.44-14.01c-3.39-2.14-6.28-3.94-6.28-8.63v-30.21h6.38v29.47c0,5.83,1.5,8.08,6.43,11.17l9.52,5.93V28.08h6.38v52.85Z"/>
  <path class="st0" d="M103.49,15.32c0,2.09-1.75,3.84-3.84,3.84s-3.84-1.7-3.84-3.84,1.7-3.84,3.84-3.84,3.84,1.75,3.84,3.84ZM102.85,28.08v51.05h-6.38V28.08h6.38Z"/>
  <path class="st0" d="M141.23,79.13h-6.38v-40.24c0-5.58-1.25-9.57-5.48-9.57s-10.47,5.53-10.47,23.93v25.88h-6.38V28.08h6.38v7.08c2.39-3.74,5.73-7.73,11.32-7.73,6.53,0,11.02,5.83,11.02,13.41v38.29Z"/>
  <path class="st0" d="M176.63,79.13h-6.38v-6.33l-8.03,5.09c-2.04,1.25-3.49,1.89-5.28,1.89-5.73,0-9.02-3.24-9.02-7.03v-12.76c0-4.69,2.89-6.53,6.28-8.63l12.81-8.03c2.34-1.45,3.49-3.44,2.79-6.58-1.05-4.54-3.84-8.03-7.53-8.03-4.69,0-7.98,5.73-7.98,12.12h-6.38c0-5.68,5.83-13.41,14.36-13.41s14.36,7.73,14.36,13.41v38.29ZM170.24,43.58l-9.52,5.93c-4.94,3.14-6.43,5.38-6.43,11.22v12.02c0,4.54,2.49,6.23,8.58,2.44l4.14-2.59c2.09-1.3,3.29-3.14,3.29-5.68h-.05v-23.33Z"/>
  <path class="st0" d="M243.33,53.61c0,13.71-9.42,25.53-18.5,25.53h-13.41V2.55h13.41c10.97,0,18.5,4.64,18.5,15.95v35.1ZM236.94,18.51c0-9.27-2.94-14.06-14.66-14.06h-4.49v72.79h4.49c9.82,0,14.66-10.77,14.66-23.63V18.51Z"/>
  <path class="st0" d="M259.03,15.32c0,2.09-1.74,3.84-3.84,3.84s-3.84-1.7-3.84-3.84,1.7-3.84,3.84-3.84,3.84,1.75,3.84,3.84ZM258.38,28.08v51.05h-6.38V28.08h6.38Z"/>
  <path class="st0" d="M289.88,40.84v-1.94c0-4.44-3.24-9.57-7.98-9.57s-7.98,5.14-7.98,9.57v29.37c0,4.49,3.24,9.62,7.98,9.62s7.98-5.14,7.98-9.62v-1.89h6.38c0,6.93-5.83,13.41-14.36,13.41s-14.36-6.48-14.36-13.41v-25.53c0-6.93,5.83-13.41,14.36-13.41s14.36,6.48,14.36,13.41h-6.38Z"/>
  <path class="st0" d="M320.04,29.97h-9.57v49.16h-6.38V29.97h-6.38v-1.89h6.38V5.69h6.38v22.39h9.57v1.89Z"/>
  <path class="st0" d="M332.25,15.32c0,2.09-1.75,3.84-3.84,3.84s-3.84-1.7-3.84-3.84,1.69-3.84,3.84-3.84,3.84,1.75,3.84,3.84ZM331.6,28.08v51.05h-6.38V28.08h6.38Z"/>
  <path class="st0" d="M369.74,66.37c0,6.93-5.83,13.41-14.36,13.41s-14.36-6.48-14.36-13.41v-25.53c0-6.93,5.83-13.41,14.36-13.41s14.36,6.48,14.36,13.41v25.53ZM363.36,38.9c0-4.44-3.24-9.57-7.98-9.57s-7.98,5.14-7.98,9.57v29.37c0,4.49,3.29,9.62,7.98,9.62s7.98-5.14,7.98-9.62v-29.37Z"/>
  <path class="st0" d="M405.63,79.13h-6.38v-40.24c0-5.58-1.25-9.57-5.49-9.57s-10.47,5.53-10.47,23.93v25.88h-6.38V28.08h6.38v7.08c2.39-3.74,5.73-7.73,11.32-7.73,6.53,0,11.02,5.83,11.02,13.41v38.29Z"/>
  <path class="st0" d="M441.03,79.13h-6.38v-6.33l-8.03,5.09c-2.04,1.25-3.49,1.89-5.28,1.89-5.73,0-9.03-3.24-9.03-7.03v-12.76c0-4.69,2.89-6.53,6.28-8.63l12.81-8.03c2.34-1.45,3.49-3.44,2.79-6.58-1.05-4.54-3.84-8.03-7.53-8.03-4.69,0-7.98,5.73-7.98,12.12h-6.38c0-5.68,5.83-13.41,14.36-13.41s14.36,7.73,14.36,13.41v38.29ZM434.65,43.58l-9.52,5.93c-4.94,3.14-6.43,5.38-6.43,11.22v12.02c0,4.54,2.49,6.23,8.58,2.44l4.14-2.59c2.09-1.3,3.29-3.14,3.29-5.68h-.05v-23.33Z"/>
  <path class="st0" d="M470.79,40.84v-1.94c0-5.58-1.25-9.57-5.54-9.57s-10.42,5.53-10.42,23.98v25.83h-6.38V28.08h6.38v7.08c2.39-3.74,5.73-7.73,11.27-7.73,6.58,0,11.07,5.83,11.07,13.41h-6.38Z"/>
  <path class="st0" d="M509.82,91.9c0,6.93-5.83,13.41-14.36,13.41s-14.36-6.48-14.36-13.41h6.38v1.94c0,4.44,3.29,9.57,7.98,9.57s7.98-5.14,7.98-9.57v-21.79c-2.34,3.74-5.73,7.73-11.27,7.73-6.58,0-11.07-5.83-11.07-13.41V28.08h6.38v40.19c0,5.63,1.25,9.62,5.53,9.62s10.42-5.53,10.42-23.93v-25.88h6.38v63.82Z"/>
</svg>