<?xml version="1.0" encoding="UTF-8"?>
<svg id="_레이어_1" data-name="레이어_1" xmlns="http://www.w3.org/2000/svg" version="1.1" viewBox="0 0 512 233">
  <!-- Generator: Adobe Illustrator 29.7.1, SVG Export Plug-In . SVG Version: 2.1.1 Build 8)  -->
  <defs>
    <style>
      .st0 {
        fill: #eaf0ff;
      }
    </style>
  </defs>
  <path class="st0" d="M97.7,151.92c0,39.24-26.97,73.07-52.94,73.07H6.37V5.79h38.39c31.4,0,52.94,13.27,52.94,45.67v100.47ZM79.44,51.45c0-26.54-8.42-40.24-41.95-40.24h-12.84v208.35h12.84c28.11,0,41.95-30.82,41.95-67.64V51.45Z"/>
  <path class="st0" d="M142.65,42.32c0,5.99-5,10.99-10.99,10.99s-10.99-4.85-10.99-10.99,4.85-10.99,10.99-10.99,10.99,4.99,10.99,10.99ZM140.79,78.85v146.13h-18.27V78.85h18.27Z"/>
  <path class="st0" d="M248.51,230.12l-64.22-40.1c-9.7-6.13-17.98-11.27-17.98-24.69v-86.48h18.27v84.34c0,16.7,4.28,23.12,18.41,31.96l27.26,16.98V78.85h18.27v151.27Z"/>
  <path class="st0" d="M296.31,42.32c0,5.99-4.99,10.99-10.99,10.99s-10.99-4.85-10.99-10.99,4.85-10.99,10.99-10.99,10.99,4.99,10.99,10.99ZM294.46,78.85v146.13h-18.27V78.85h18.27Z"/>
  <path class="st0" d="M404.32,224.98h-18.27v-115.16c0-15.98-3.57-27.4-15.7-27.4s-29.96,15.84-29.96,68.5v74.07h-18.27V78.85h18.27v20.27c6.85-10.7,16.41-22.12,32.39-22.12,18.7,0,31.54,16.7,31.54,38.39v109.6Z"/>
  <path class="st0" d="M505.63,224.98h-18.27v-18.13l-22.98,14.56c-5.85,3.57-9.99,5.42-15.13,5.42-16.41,0-25.83-9.27-25.83-20.12v-36.53c0-13.41,8.27-18.7,17.98-24.69l36.67-22.98c6.71-4.13,9.99-9.84,7.99-18.84-2.99-12.99-10.99-22.98-21.55-22.98-13.41,0-22.83,16.41-22.83,34.68h-18.27c0-16.27,16.7-38.39,41.1-38.39s41.1,22.12,41.1,38.39v109.6ZM487.36,123.24l-27.26,16.98c-14.13,8.99-18.41,15.41-18.41,32.11v34.39c0,12.99,7.13,17.84,24.54,6.99l11.84-7.42c5.99-3.71,9.42-8.99,9.42-16.27h-.14v-66.78Z"/>
</svg>