<?xml version="1.0" encoding="UTF-8"?>
<svg id="_격리_모드" xmlns="http://www.w3.org/2000/svg" version="1.1" viewBox="0 0 512 512">
  <!-- Generator: Adobe Illustrator 29.7.1, SVG Export Plug-In . SVG Version: 2.1.1 Build 8)  -->
  <defs>
    <style>
      .st0 {
        fill: #e7eefc;
      }
    </style>
  </defs>
  <path class="st0" d="M302.12,179.75l-43.29-43.29c-1.56-1.56-4.09-1.56-5.66,0l-116.7,116.7c-1.56,1.56-1.56,4.09,0,5.66l116.7,116.7c1.56,1.56,4.09,1.56,5.66,0l43.29-43.29c1.56-1.56,1.56-4.09,0-5.66l-12.7-12.7c-1.56-1.56-4.09-1.56-5.66,0l-24.93,24.93c-1.56,1.56-4.09,1.56-5.66,0l-80-80c-1.56-1.56-1.56-4.09,0-5.66l80-80c1.56-1.56,4.09-1.56,5.66,0l24.93,24.93c1.56,1.56,4.09,1.56,5.66,0l12.7-12.7c1.56-1.56,1.56-4.09,0-5.66v.04Z"/>
  <path class="st0" d="M338.82,258.83l-24.93,24.93c-1.56,1.56-1.56,4.09,0,5.66l12.7,12.7c1.56,1.56,4.09,1.56,5.66,0l43.29-43.29c1.56-1.56,1.56-4.09,0-5.66l-43.29-43.29c-1.56-1.56-4.09-1.56-5.66,0l-12.7,12.7c-1.56,1.56-1.56,4.09,0,5.66l24.93,24.93c1.56,1.56,1.56,4.09,0,5.66Z"/>
</svg>