<?xml version="1.0" encoding="UTF-8"?>
<svg id="_격리_모드" data-name="격리_모드" xmlns="http://www.w3.org/2000/svg" version="1.1" viewBox="0 0 512 512">
  <!-- Generator: Adobe Illustrator 29.7.1, SVG Export Plug-In . SVG Version: 2.1.1 Build 8)  -->
  <defs>
    <style>
      .st0 {
        fill: #e7eefc;
      }
    </style>
  </defs>
  <path class="st0" d="M461.19,258.83l-86.11,86.11c-1.56,1.56-1.56,4.09,0,5.66l12.7,12.7c1.56,1.56,4.09,1.56,5.66,0l104.47-104.47c1.56-1.56,1.56-4.09,0-5.66l-104.47-104.47c-1.56-1.56-4.09-1.56-5.66,0l-12.7,12.7c-1.56,1.56-1.56,4.09,0,5.66l86.11,86.11c1.56,1.56,1.56,4.09,0,5.66Z"/>
  <path class="st0" d="M253.17,14.11L14.11,253.17c-1.56,1.56-1.56,4.09,0,5.66l239.07,239.07c1.56,1.56,4.09,1.56,5.66,0l104.47-104.47c1.56-1.56,1.56-4.09,0-5.66l-12.7-12.7c-1.56-1.56-4.09-1.56-5.66,0l-86.11,86.11c-1.56,1.56-4.09,1.56-5.66,0L50.81,258.83c-1.56-1.56-1.56-4.09,0-5.66L253.17,50.81c1.56-1.56,4.09-1.56,5.66,0l86.11,86.11c1.56,1.56,4.09,1.56,5.66,0l12.7-12.7c1.56-1.56,1.56-4.09,0-5.66L258.83,14.11c-1.56-1.56-4.09-1.56-5.66,0Z"/>
  <path class="st0" d="M191.99,344.48l-12.7,12.7c-1.56,1.56-1.56,4.09,0,5.66l73.88,73.88c1.56,1.56,4.09,1.56,5.66,0l73.88-73.88c1.56-1.56,1.56-4.09,0-5.66l-12.7-12.7c-1.56-1.56-4.09-1.56-5.66,0l-55.52,55.52c-1.56,1.56-4.09,1.56-5.66,0l-55.52-55.52c-1.56-1.56-4.09-1.56-5.66,0Z"/>
  <path class="st0" d="M344.48,320.01l12.7,12.7c1.56,1.56,4.09,1.56,5.66,0l73.88-73.88c1.56-1.56,1.56-4.09,0-5.66l-177.89-177.89c-1.56-1.56-4.09-1.56-5.66,0L75.29,253.17c-1.56,1.56-1.56,4.09,0,5.66l73.88,73.88c1.56,1.56,4.09,1.56,5.66,0l12.7-12.7c1.56-1.56,1.56-4.09,0-5.66l-55.52-55.52c-1.56-1.56-1.56-4.09,0-5.66L253.17,111.99c1.56-1.56,4.09-1.56,5.66,0l141.18,141.18c1.56,1.56,1.56,4.09,0,5.66l-55.52,55.52c-1.56,1.56-1.56,4.09,0,5.66Z"/>
  <path class="st0" d="M302.12,179.75l-43.29-43.29c-1.56-1.56-4.09-1.56-5.66,0l-116.7,116.7c-1.56,1.56-1.56,4.09,0,5.66l116.7,116.7c1.56,1.56,4.09,1.56,5.66,0l43.29-43.29c1.56-1.56,1.56-4.09,0-5.66l-12.7-12.7c-1.56-1.56-4.09-1.56-5.66,0l-24.93,24.93c-1.56,1.56-4.09,1.56-5.66,0l-80-80c-1.56-1.56-1.56-4.09,0-5.66l80-80c1.56-1.56,4.09-1.56,5.66,0l24.93,24.93c1.56,1.56,4.09,1.56,5.66,0l12.7-12.7c1.56-1.56,1.56-4.09,0-5.66Z"/>
  <path class="st0" d="M338.82,258.83l-24.93,24.93c-1.56,1.56-1.56,4.09,0,5.66l12.7,12.7c1.56,1.56,4.09,1.56,5.66,0l43.29-43.29c1.56-1.56,1.56-4.09,0-5.66l-43.29-43.29c-1.56-1.56-4.09-1.56-5.66,0l-12.7,12.7c-1.56,1.56-1.56,4.09,0,5.66l24.93,24.93c1.56,1.56,1.56,4.09,0,5.66Z"/>
</svg>
