<?xml version="1.0" encoding="UTF-8"?>
<svg id="_격리_모드" xmlns="http://www.w3.org/2000/svg" version="1.1" viewBox="0 0 512 512">
  <!-- Generator: Adobe Illustrator 29.7.1, SVG Export Plug-In . SVG Version: 2.1.1 Build 8)  -->
  <defs>
    <style>
      .st0 {
        fill: #e7eefc;
      }
    </style>
  </defs>
  <path class="st0" d="M461.19,258.83l-86.11,86.11c-1.56,1.56-1.56,4.09,0,5.66l12.7,12.7c1.56,1.56,4.09,1.56,5.66,0l104.47-104.47c1.56-1.56,1.56-4.09,0-5.66l-104.47-104.47c-1.56-1.56-4.09-1.56-5.66,0l-12.7,12.7c-1.56,1.56-1.56,4.09,0,5.66l86.11,86.11c1.56,1.56,1.56,4.09,0,5.66h0Z"/>
  <path class="st0" d="M253.17,14.11L14.11,253.17c-1.56,1.56-1.56,4.09,0,5.66l239.07,239.07c1.56,1.56,4.09,1.56,5.66,0l104.47-104.47c1.56-1.56,1.56-4.09,0-5.66l-12.7-12.7c-1.56-1.56-4.09-1.56-5.66,0l-86.11,86.11c-1.56,1.56-4.09,1.56-5.66,0L50.81,258.83c-1.56-1.56-1.56-4.09,0-5.66L253.17,50.81c1.56-1.56,4.09-1.56,5.66,0l86.11,86.11c1.56,1.56,4.09,1.56,5.66,0l12.7-12.7c1.56-1.56,1.56-4.09,0-5.66L258.83,14.11c-1.56-1.56-4.09-1.56-5.66,0h0Z"/>
</svg>